  0
SECTION
  2
HEADER
  9
$ACADVER
  1
AC1018
  9
$ACADMAINTVER
 70
     0
  9
$DWGCODEPAGE
  3
ANSI_1252
  9
$EXTMIN
 10
-105.8043495
 20
35.5711759
 30
0.0
  9
$EXTMAX
 10
-105.7954624
 20
35.5785203
 30
0.0
  9
$LIMMIN
 10
0.0
 20
0.0
  9
$LIMMAX
 10
12.0
 20
9.0
  9
$ORTHOMODE
 70
     0
  9
$REGENMODE
 70
     1
  9
$FILLMODE
 70
     1
  9
$QTEXTMODE
 70
     0
  9
$MIRRTEXT
 70
     1
  9
$LTSCALE
 40
1.0
  9
$ATTMODE
 70
     1
  9
$TEXTSIZE
 40
0.2
  9
$TRACEWID
 40
0.05
  9
$TEXTSTYLE
  7
Standard
  9
$CLAYER
  8
0
  9
$CELTYPE
  6
ByLayer
  9
$CECOLOR
 62
   256
  9
$CELTSCALE
 40
1.0
  9
$DISPSILH
 70
     0
  9
$LUNITS
 70
     2
  9
$LUPREC
 70
     4
  9
$SKETCHINC
 40
0.1
  9
$FILLETRAD
 40
0.5
  9
$AUNITS
 70
     0
  9
$AUPREC
 70
     0
  9
$MENU
  1
.
  9
$ELEVATION
 40
0.0
  9
$PELEVATION
 40
0.0
  9
$THICKNESS
 40
0.0
  9
$LIMCHECK
 70
     0
  9
$CHAMFERA
 40
0.5
  9
$CHAMFERB
 40
0.5
  9
$CHAMFERC
 40
1.0
  9
$CHAMFERD
 40
0.0
  9
$SKPOLY
 70
     0
  9
$ANGBASE
 50
0.0
  9
$ANGDIR
 70
     0
  9
$PDMODE
 70
     0
  9
$PDSIZE
 40
0.0
  9
$PLINEWID
 40
0.0
  9
$SPLFRAME
 70
     0
  9
$SPLINETYPE
 70
     6
  9
$SPLINESEGS
 70
     8
  9
$HANDSEED
  5
0002003F
  9
$SURFTAB1
 70
     6
  9
$SURFTAB2
 70
     6
  9
$SURFTYPE
 70
     6
  9
$SURFU
 70
     6
  9
$SURFV
 70
     6
  9
$UCSBASE
  2

  9
$UCSNAME
  2

  9
$UCSORG
 10
0.0
 20
0.0
 30
0.0
  9
$UCSXDIR
 10
1.0
 20
0.0
 30
0.0
  9
$UCSYDIR
 10
0.0
 20
1.0
 30
0.0
  9
$UCSORTHOREF
  2

  9
$UCSORTHOVIEW
 70
     0
  9
$UCSORGTOP
 10
0.0
 20
0.0
 30
0.0
  9
$UCSORGBOTTOM
 10
0.0
 20
0.0
 30
0.0
  9
$UCSORGLEFT
 10
0.0
 20
0.0
 30
0.0
  9
$UCSORGRIGHT
 10
0.0
 20
0.0
 30
0.0
  9
$UCSORGFRONT
 10
0.0
 20
0.0
 30
0.0
  9
$UCSORGBACK
 10
0.0
 20
0.0
 30
0.0
  9
$PUCSBASE
  2

  9
$PUCSNAME
  2

  9
$PUCSORG
 10
0.0
 20
0.0
 30
0.0
  9
$PUCSXDIR
 10
1.0
 20
0.0
 30
0.0
  9
$PUCSYDIR
 10
0.0
 20
1.0
 30
0.0
  9
$PUCSORTHOREF
  2

  9
$PUCSORTHOVIEW
 70
     0
  9
$PUCSORGTOP
 10
0.0
 20
0.0
 30
0.0
  9
$PUCSORGBOTTOM
 10
0.0
 20
0.0
 30
0.0
  9
$PUCSORGLEFT
 10
0.0
 20
0.0
 30
0.0
  9
$PUCSORGRIGHT
 10
0.0
 20
0.0
 30
0.0
  9
$PUCSORGFRONT
 10
0.0
 20
0.0
 30
0.0
  9
$PUCSORGBACK
 10
0.0
 20
0.0
 30
0.0
  9
$WORLDVIEW
 70
     1
  9
$SHADEDGE
 70
     3
  9
$SHADEDIF
 70
    70
  9
$TILEMODE
 70
     1
  9
$MAXACTVP
 70
    64
  9
$PINSBASE
 10
0.0
 20
0.0
 30
0.0
  9
$PLIMCHECK
 70
     0
  9
$PEXTMIN
 10
1.000000000000000E+20
 20
1.000000000000000E+20
 30
1.000000000000000E+20
  9
$PEXTMAX
 10
-1.000000000000000E+20
 20
-1.000000000000000E+20
 30
-1.000000000000000E+20
  9
$PLIMMIN
 10
0.0
 20
0.0
  9
$PLIMMAX
 10
12.0
 20
9.0
  9
$UNITMODE
 70
     0
  9
$VISRETAIN
 70
     1
  9
$PLINEGEN
 70
     0
  9
$PSLTSCALE
 70
     1
  9
$TREEDEPTH
 70
  3020
  9
$CMLSTYLE
  2
Standard
  9
$CMLJUST
 70
     0
  9
$CMLSCALE
 40
1.0
  9
$PROXYGRAPHICS
 70
     1
  9
$MEASUREMENT
 70
     0
  9
$CELWEIGHT
370
    -1
  9
$ENDCAPS
280
     0
  9
$JOINSTYLE
280
     0
  9
$LWDISPLAY
290
     0
  9
$INSUNITS
 70
     1
  9
$HYPERLINKBASE
  1

  9
$STYLESHEET
  1

  9
$XEDIT
290
     1
  9
$CEPSNTYPE
380
     0
  9
$PSTYLEMODE
290
     1
  9
$EXTNAMES
290
     1
  9
$PSVPSCALE
 40
0.0
  9
$OLESTARTUP
290
     0
  9
$SORTENTS
280
   127
  9
$INDEXCTL
280
     0
  9
$HIDETEXT
280
     1
  9
$XCLIPFRAME
290
     0
  9
$HALOGAP
280
     0
  9
$OBSCOLOR
 70
   257
  9
$OBSLTYPE
280
     0
  9
$INTERSECTIONDISPLAY
280
     0
  9
$INTERSECTIONCOLOR
 70
   257
  9
$DIMASSOC
280
     2
  9
$PROJECTNAME
  1

  0
ENDSEC
  0
SECTION
  2
CLASSES
  0
CLASS
  1
ACDBDICTIONARYWDFLT
  2
AcDbDictionaryWithDefault
  3
ObjectDBX Classes
 90
        0
 91
        4
280
     0
281
     0
  0
ENDSEC
  0
SECTION
  2
TABLES
  0
TABLE
  2
VPORT
  5
8
330
0
100
AcDbSymbolTable
 70
     1
  0
VPORT
  5
29
330
8
100
AcDbSymbolTableRecord
100
AcDbViewportTableRecord
  2
*Active
 70
     0
 10
0.0
 20
0.0
 11
1.0
 21
1.0
 12
80.25
 22
106.4409457059851
 13
0.0
 23
0.0
 14
0.5
 24
0.5
 15
0.5
 25
0.5
 16
0.0
 26
0.0
 36
1.0
 17
0.0
 27
0.0
 37
0.0
 40
113.3818914119703
 41
0.8863849310366128
 42
50.0
 43
0.0
 44
0.0
 50
0.0
 51
0.0
 71
     0
 72
  1000
 73
     1
 74
     3
 75
     0
 76
     0
 77
     0
 78
     0
281
     0
 65
     1
110
0.0
120
0.0
130
0.0
111
1.0
121
0.0
131
0.0
112
0.0
122
1.0
132
0.0
 79
     0
146
0.0
  0
ENDTAB
  0
TABLE
  2
LTYPE
  5
5
330
0
100
AcDbSymbolTable
 70
     1
  0
LTYPE
  5
14
330
5
100
AcDbSymbolTableRecord
100
AcDbLinetypeTableRecord
  2
ByBlock
 70
     0
  3

 72
    65
 73
     0
 40
0.0
  0
LTYPE
  5
15
330
5
100
AcDbSymbolTableRecord
100
AcDbLinetypeTableRecord
  2
ByLayer
 70
     0
  3

 72
    65
 73
     0
 40
0.0
  0
LTYPE
  5
16
330
5
100
AcDbSymbolTableRecord
100
AcDbLinetypeTableRecord
  2
Continuous
 70
     0
  3
Solid line
 72
    65
 73
     0
 40
0.0
  0
ENDTAB
  0
TABLE
  2
LAYER
  5
2
330
0
100
AcDbSymbolTable
 70
     1
  0
LAYER
  5
10
330
2
100
AcDbSymbolTableRecord
100
AcDbLayerTableRecord
  2
0
 70
     0
 62
     7
  6
Continuous
370
    -3
390
F
  0
ENDTAB
  0
TABLE
  2
STYLE
  5
3
330
0
100
AcDbSymbolTable
 70
     1
  0
STYLE
  5
11
330
3
100
AcDbSymbolTableRecord
100
AcDbTextStyleTableRecord
  2
Standard
 70
     0
 40
0.0
 41
1.0
 50
0.0
 71
     0
 42
0.2
  3
txt
  4

  0
ENDTAB
  0
TABLE
  2
VIEW
  5
6
330
0
100
AcDbSymbolTable
 70
     0
  0
ENDTAB
  0
TABLE
  2
UCS
  5
7
330
0
100
AcDbSymbolTable
 70
     0
  0
ENDTAB
  0
TABLE
  2
APPID
  5
9
330
0
100
AcDbSymbolTable
 70
     1
  0
APPID
  5
12
330
9
100
AcDbSymbolTableRecord
100
AcDbRegAppTableRecord
  2
ACAD
 70
     0
  0
ENDTAB
  0
TABLE
  2
DIMSTYLE
  5
A
330
0
100
AcDbSymbolTable
 70
     1
100
AcDbDimStyleTable
  0
DIMSTYLE
105
27
330
A
100
AcDbSymbolTableRecord
100
AcDbDimStyleTableRecord
  2
Standard
 70
     0
340
11
  0
ENDTAB
  0
TABLE
  2
BLOCK_RECORD
  5
1
330
0
100
AcDbSymbolTable
 70
     1
  0
BLOCK_RECORD
  5
1F
330
1
100
AcDbSymbolTableRecord
100
AcDbBlockTableRecord
  2
*Model_Space
340
22
  0
BLOCK_RECORD
  5
1B
330
1
100
AcDbSymbolTableRecord
100
AcDbBlockTableRecord
  2
*Paper_Space
340
1E
  0
ENDTAB
  0
ENDSEC
  0
SECTION
  2
BLOCKS
  0
BLOCK
  5
20
330
1F
100
AcDbEntity
  8
0
100
AcDbBlockBegin
  2
*Model_Space
 70
     0
 10
0.0
 20
0.0
 30
0.0
  3
*Model_Space
  1

  0
ENDBLK
  5
21
330
1F
100
AcDbEntity
  8
0
100
AcDbBlockEnd
  0
BLOCK
  5
1C
330
1B
100
AcDbEntity
 67
     1
  8
0
100
AcDbBlockBegin
  2
*Paper_Space
 70
     0
 10
0.0
 20
0.0
 30
0.0
  3
*Paper_Space
  1

  0
ENDBLK
  5
1D
330
1B
100
AcDbEntity
 67
     1
  8
0
100
AcDbBlockEnd
  0
ENDSEC
  0
SECTION
  2
ENTITIES
  0
LWPOLYLINE
  5
20000
100
AcDbEntity
  8
0
100
AcDbPolyline
 70
0
 90
5
 38
7390
 10
-105.797346941295
 20
35.5785203
 10
-105.797346941295
 20
35.5783790615385
 10
-105.797545314063
 20
35.5782378230487
 10
-105.797684175028
 20
35.5783790615385
 10
-105.797684175028
 20
35.5785203
  0
LWPOLYLINE
  5
20001
100
AcDbEntity
  8
0
100
AcDbPolyline
 70
0
 90
7
 38
7400
 10
-105.796124031526
 20
35.5785203
 10
-105.796124031526
 20
35.5783790615385
 10
-105.796156704688
 20
35.5782983538462
 10
-105.796434426562
 20
35.57815308
 10
-105.796712148438
 20
35.5783225661538
 10
-105.796791497545
 20
35.5783790615385
 10
-105.796791497545
 20
35.5785203
  0
LWPOLYLINE
  5
20002
100
AcDbEntity
  8
0
100
AcDbPolyline
 70
0
 90
10
 38
7390
 10
-105.795960665717
 20
35.5785203
 10
-105.795960665717
 20
35.5783790615385
 10
-105.796087274219
 20
35.5780965846154
 10
-105.796156704688
 20
35.5779553461256
 10
-105.796434426562
 20
35.5779227526627
 10
-105.796712148438
 20
35.5780531266272
 10
-105.796767692813
 20
35.5780965846154
 10
-105.796989870313
 20
35.578270416568
 10
-105.79718824308
 20
35.5783790615385
 10
-105.79718824308
 20
35.5785203
  0
LWPOLYLINE
  5
20003
100
AcDbEntity
  8
0
100
AcDbPolyline
 70
0
 90
7
 38
7650
 10
-105.803505652764
 20
35.5785203
 10
-105.803505652764
 20
35.5783790615385
 10
-105.80346079
 20
35.5780965846154
 10
-105.803655195313
 20
35.5779444816568
 10
-105.803932917187
 20
35.5779138054299
 10
-105.804210639063
 20
35.5779835938462
 10
-105.8043495
 20
35.5779835938462
  0
LWPOLYLINE
  5
20004
100
AcDbEntity
  8
0
100
AcDbPolyline
 70
0
 90
9
 38
7660
 10
-105.803774218973
 20
35.5785203
 10
-105.803774218973
 20
35.5783790615385
 10
-105.803655195313
 20
35.578258
 10
-105.803599650937
 20
35.5780965846154
 10
-105.803655195313
 20
35.5780531266272
 10
-105.803932917187
 20
35.5780799683258
 10
-105.803972591741
 20
35.5780965846154
 10
-105.804091615402
 20
35.5783790615385
 10
-105.804091615402
 20
35.5785203
  0
LWPOLYLINE
  5
20005
100
AcDbEntity
  8
0
100
AcDbPolyline
 70
0
 90
5
 38
7300
 10
-105.799211645312
 20
35.5775316308634
 10
-105.799159572461
 20
35.5778141076923
 10
-105.799211645312
 20
35.5780965845212
 10
-105.799350506204
 20
35.5778141076923
 10
-105.799211645312
 20
35.5775316308634
  0
LWPOLYLINE
  5
20006
100
AcDbEntity
  8
0
100
AcDbPolyline
 70
0
 90
9
 38
7390
 10
-105.797767491563
 20
35.5778141076923
 10
-105.797823035937
 20
35.5777334
 10
-105.798100757813
 20
35.5776728691602
 10
-105.798124907541
 20
35.5778141076923
 10
-105.798100757813
 20
35.5778575656805
 10
-105.79786576238
 20
35.5780965846154
 10
-105.797823035937
 20
35.5781772923077
 10
-105.79774368683
 20
35.5780965846154
 10
-105.797767491563
 20
35.5778141076923
  0
LWPOLYLINE
  5
20007
100
AcDbEntity
  8
0
100
AcDbPolyline
 70
0
 90
9
 38
7630
 10
-105.803172836266
 20
35.5785203
 10
-105.803172836266
 20
35.5783790615385
 10
-105.803172836266
 20
35.5780965846154
 10
-105.803377473438
 20
35.5779602164456
 10
-105.803558596399
 20
35.5778141076923
 10
-105.803655195313
 20
35.5777576123077
 10
-105.803932917187
 20
35.5777042555556
 10
-105.804210639063
 20
35.5776421652174
 10
-105.8043495
 20
35.5776421652174
  0
LWPOLYLINE
  5
20008
100
AcDbEntity
  8
0
100
AcDbPolyline
 70
0
 90
9
 38
7640
 10
-105.803319005674
 20
35.5785203
 10
-105.803319005674
 20
35.5783790615385
 10
-105.803319005674
 20
35.5780965846154
 10
-105.803377473438
 20
35.5780576222812
 10
-105.803655195313
 20
35.5778358366864
 10
-105.803747769271
 20
35.5778141076923
 10
-105.803932917187
 20
35.5777827213675
 10
-105.804210639063
 20
35.5777649812709
 10
-105.8043495
 20
35.5777649812709
  0
LWPOLYLINE
  5
20009
100
AcDbEntity
  8
0
100
AcDbPolyline
 70
0
 90
11
 38
7610
 10
-105.802918628601
 20
35.5785203
 10
-105.802918628601
 20
35.5783790615385
 10
-105.802918628601
 20
35.5780965846154
 10
-105.803099751562
 20
35.5778473402715
 10
-105.80317910067
 20
35.5778141076923
 10
-105.803377473438
 20
35.5777597852071
 10
-105.803655195313
 20
35.5776163738462
 10
-105.803932917187
 20
35.5775473239316
 10
-105.80397564363
 20
35.5775316307692
 10
-105.804210639063
 20
35.5773374278846
 10
-105.8043495
 20
35.5773374278846
  0
LWPOLYLINE
  5
2000A
100
AcDbEntity
  8
0
100
AcDbPolyline
 70
0
 90
11
 38
7620
 10
-105.803039377242
 20
35.5785203
 10
-105.803039377242
 20
35.5783790615385
 10
-105.803039377242
 20
35.5780965846154
 10
-105.803099751562
 20
35.5780135031674
 10
-105.803377473438
 20
35.5778628106101
 10
-105.803437847758
 20
35.5778141076923
 10
-105.803655195313
 20
35.5776869930769
 10
-105.803932917187
 20
35.5776257897436
 10
-105.804189275841
 20
35.5775316307692
 10
-105.804210639063
 20
35.5775139759615
 10
-105.8043495
 20
35.5775139759615
  0
LWPOLYLINE
  5
2000B
100
AcDbEntity
  8
0
100
AcDbPolyline
 70
0
 90
13
 38
7600
 10
-105.802797879959
 20
35.5785203
 10
-105.802797879959
 20
35.5783790615385
 10
-105.802805198059
 20
35.5780965846154
 10
-105.802822029688
 20
35.5780633520362
 10
-105.803003152649
 20
35.5778141076923
 10
-105.803099751562
 20
35.577727191716
 10
-105.803377473438
 20
35.5776511402367
 10
-105.803655195313
 20
35.5775457546154
 10
-105.803710739688
 20
35.5775316307692
 10
-105.803932917187
 20
35.5774126931174
 10
-105.804123850977
 20
35.5772491538462
 10
-105.804210639063
 20
35.5771079153564
 10
-105.8043495
 20
35.5771079153564
  0
LWPOLYLINE
  5
2000C
100
AcDbEntity
  8
0
100
AcDbPolyline
 70
0
 90
28
 38
7380
 10
-105.795772166707
 20
35.5785203
 10
-105.795772166707
 20
35.5783790615385
 10
-105.795878982813
 20
35.5782378230487
 10
-105.795948413281
 20
35.5780965846154
 10
-105.795925269792
 20
35.5778141076923
 10
-105.796156704688
 20
35.5776728692025
 10
-105.796434426562
 20
35.5777054627219
 10
-105.796665861458
 20
35.5778141076923
 10
-105.796712148438
 20
35.5778358366864
 10
-105.796989870313
 20
35.5780400892308
 10
-105.797175018229
 20
35.5780965846154
 10
-105.797267592188
 20
35.5781279709402
 10
-105.797313879167
 20
35.5780965846154
 10
-105.797489769688
 20
35.5778141076923
 10
-105.797545314063
 20
35.5777334
 10
-105.797684174972
 20
35.5775316307692
 10
-105.797716219832
 20
35.5772491538462
 10
-105.797823035937
 20
35.5770137564103
 10
-105.797869322917
 20
35.5769666769231
 10
-105.798100757813
 20
35.5767312794872
 10
-105.798207573918
 20
35.5769666769231
 10
-105.798271663582
 20
35.5772491538462
 10
-105.798347621701
 20
35.5775316307692
 10
-105.798245656182
 20
35.5778141076923
 10
-105.798100757813
 20
35.5780748556213
 10
-105.798079394591
 20
35.5780965846154
 10
-105.797909824023
 20
35.5783790615385
 10
-105.797909824023
 20
35.5785203
  0
LWPOLYLINE
  5
2000D
100
AcDbEntity
  8
0
100
AcDbPolyline
 70
0
 90
14
 38
7590
 10
-105.802677131318
 20
35.5785203
 10
-105.802677131318
 20
35.5783790615385
 10
-105.802721039915
 20
35.5780965846154
 10
-105.802822029688
 20
35.5778971891403
 10
-105.802882404008
 20
35.5778141076923
 10
-105.803099751562
 20
35.5776185467456
 10
-105.803377473438
 20
35.5775424952663
 10
-105.803408331424
 20
35.5775316307692
 10
-105.803655195313
 20
35.5774333779264
 10
-105.803932917187
 20
35.5772640210526
 10
-105.803950274805
 20
35.5772491538462
 10
-105.804168559991
 20
35.5769666769231
 10
-105.804210639063
 20
35.5768580319527
 10
-105.8043495
 20
35.5768580319527
  0
LWPOLYLINE
  5
2000E
100
AcDbEntity
  8
0
100
AcDbPolyline
 70
0
 90
15
 38
7580
 10
-105.802556382677
 20
35.5785203
 10
-105.802556382677
 20
35.5783790615385
 10
-105.802636881771
 20
35.5780965846154
 10
-105.802748944984
 20
35.5778141076923
 10
-105.802822029688
 20
35.5777054627219
 10
-105.803044207187
 20
35.5775316307692
 10
-105.803099751562
 20
35.5775033830769
 10
-105.803377473438
 20
35.5773820841629
 10
-105.803655195313
 20
35.5773105618729
 10
-105.803754381696
 20
35.5772491538462
 10
-105.803932917187
 20
35.5771549948718
 10
-105.804084401847
 20
35.5769666769231
 10
-105.804189275841
 20
35.5766842
 10
-105.804210639063
 20
35.5764958820513
 10
-105.8043495
 20
35.5764958820513
  0
LWPOLYLINE
  5
2000F
100
AcDbEntity
  8
0
100
AcDbPolyline
 70
0
 90
32
 38
7370
 10
-105.7954624
 20
35.5782983538462
 10
-105.795601260938
 20
35.5782983538462
 10
-105.795740121847
 20
35.5780965846154
 10
-105.795731953585
 20
35.5778141076923
 10
-105.795878982813
 20
35.5775598784615
 10
-105.795925269792
 20
35.5775316307692
 10
-105.796156704688
 20
35.5774229857988
 10
-105.796434426562
 20
35.5774881727811
 10
-105.79651377567
 20
35.5775316307692
 10
-105.796712148438
 20
35.5776325153846
 10
-105.796989870313
 20
35.5777576123077
 10
-105.797267592188
 20
35.5777334
 10
-105.797406453097
 20
35.5775316307692
 10
-105.79750258762
 20
35.5772491538462
 10
-105.797545314063
 20
35.577205695858
 10
-105.797698061094
 20
35.5769666769231
 10
-105.797823035937
 20
35.5767124476923
 10
-105.797850808125
 20
35.5766842
 10
-105.798021408705
 20
35.5764017230769
 10
-105.798100757813
 20
35.5763210153846
 10
-105.79818010692
 20
35.5764017230769
 10
-105.798279293304
 20
35.5766842
 10
-105.798378479687
 20
35.5768859692308
 10
-105.79839763292
 20
35.5769666769231
 10
-105.79843188774
 20
35.5772491538462
 10
-105.79846179625
 20
35.5775316307692
 10
-105.798378479687
 20
35.57778586
 10
-105.798366404823
 20
35.5778141076923
 10
-105.79820943159
 20
35.5780965846154
 10
-105.798100757813
 20
35.5783508138462
 10
-105.798083400195
 20
35.5783790615385
 10
-105.798083400195
 20
35.5785203
  0
LWPOLYLINE
  5
20010
100
AcDbEntity
  8
0
100
AcDbPolyline
 70
0
 90
17
 38
7570
 10
-105.802451733854
 20
35.5785203
 10
-105.802451733854
 20
35.5783790615385
 10
-105.802544307812
 20
35.5781248323077
 10
-105.802552723627
 20
35.5780965846154
 10
-105.802602775576
 20
35.5778141076923
 10
-105.802787314453
 20
35.5775316307692
 10
-105.802822029688
 20
35.5775033830769
 10
-105.803099751562
 20
35.5773621446154
 10
-105.803321929063
 20
35.5772491538462
 10
-105.803377473438
 20
35.5772274248521
 10
-105.803655195313
 20
35.5771948313609
 10
-105.803932917187
 20
35.5770503737892
 10
-105.804000243703
 20
35.5769666769231
 10
-105.804082459736
 20
35.5766842
 10
-105.804101965285
 20
35.5764017230769
 10
-105.804210639063
 20
35.5762521764706
 10
-105.8043495
 20
35.5762521764706
  0
LWPOLYLINE
  5
20011
100
AcDbEntity
  8
0
100
AcDbPolyline
 70
0
 90
30
 38
7360
 10
-105.7954624
 20
35.5774374717949
 10
-105.795601260938
 20
35.5774374717949
 10
-105.795878982813
 20
35.5772774015385
 10
-105.795971556771
 20
35.5772491538462
 10
-105.796156704688
 20
35.577205695858
 10
-105.796341852604
 20
35.5772491538462
 10
-105.796434426562
 20
35.5772708828402
 10
-105.796712148438
 20
35.5774229857988
 10
-105.796989870313
 20
35.5774881727811
 10
-105.797267592188
 20
35.5772962333333
 10
-105.797288955409
 20
35.5772491538462
 10
-105.797545314063
 20
35.5769884059172
 10
-105.797559200156
 20
35.5769666769231
 10
-105.797630766947
 20
35.5766842
 10
-105.797716219832
 20
35.5764017230769
 10
-105.797823035937
 20
35.576166325641
 10
-105.797869322917
 20
35.5761192461538
 10
-105.798100757813
 20
35.5759623145299
 10
-105.798378479687
 20
35.5759623145299
 10
-105.798426362769
 20
35.5761192461538
 10
-105.79843188774
 20
35.5764017230769
 10
-105.79843188774
 20
35.5766842
 10
-105.798493399084
 20
35.5769666769231
 10
-105.798538703846
 20
35.5772491538462
 10
-105.798554370208
 20
35.5775316307692
 10
-105.798474614183
 20
35.5778141076923
 10
-105.798378479687
 20
35.5780096686391
 10
-105.798330180231
 20
35.5780965846154
 10
-105.79820943159
 20
35.5783790615385
 10
-105.79820943159
 20
35.5785203
  0
LWPOLYLINE
  5
20012
100
AcDbEntity
  8
0
100
AcDbPolyline
 70
0
 90
19
 38
7550
 10
-105.802253361086
 20
35.5785203
 10
-105.802253361086
 20
35.5783790615385
 10
-105.802266585938
 20
35.5783356035503
 10
-105.802368417292
 20
35.5780965846154
 10
-105.802396189479
 20
35.5778141076923
 10
-105.802493812926
 20
35.5775316307692
 10
-105.802544307812
 20
35.5774468876923
 10
-105.802787314453
 20
35.5772491538462
 10
-105.802822029688
 20
35.5772314990385
 10
-105.803099751562
 20
35.577143225
 10
-105.803377473438
 20
35.5770101349112
 10
-105.803655195313
 20
35.5769775414201
 10
-105.803676558534
 20
35.5769666769231
 10
-105.803860468003
 20
35.5766842
 10
-105.803877372813
 20
35.5764017230769
 10
-105.803932917187
 20
35.5762713491124
 10
-105.804035235773
 20
35.5761192461538
 10
-105.804210639063
 20
35.5758584982249
 10
-105.8043495
 20
35.5758584982249
  0
LWPOLYLINE
  5
20013
100
AcDbEntity
  8
0
100
AcDbPolyline
 70
0
 90
18
 38
7560
 10
-105.8023488739
 20
35.5785203
 10
-105.8023488739
 20
35.5783790615385
 10
-105.80246099125
 20
35.5780965846154
 10
-105.802488763437
 20
35.5778141076923
 10
-105.802544307812
 20
35.5776446215385
 10
-105.802613738281
 20
35.5775316307692
 10
-105.802822029688
 20
35.5773621446154
 10
-105.803044207187
 20
35.5772491538462
 10
-105.803099751562
 20
35.5772314990385
 10
-105.803377473438
 20
35.5771187798817
 10
-105.803655195313
 20
35.5770861863905
 10
-105.803890190745
 20
35.5769666769231
 10
-105.803932917187
 20
35.5768725179487
 10
-105.80397564363
 20
35.5766842
 10
-105.803981216644
 20
35.5764017230769
 10
-105.804181405181
 20
35.5761192461538
 10
-105.804210639063
 20
35.5760757881657
 10
-105.8043495
 20
35.5760757881657
  0
LWPOLYLINE
  5
20014
100
AcDbEntity
  8
0
100
AcDbPolyline
 70
0
 90
20
 38
7540
 10
-105.80218723683
 20
35.5785203
 10
-105.80218723683
 20
35.5783790615385
 10
-105.802266585938
 20
35.5781183136095
 10
-105.802275843333
 20
35.5780965846154
 10
-105.802303615521
 20
35.5778141076923
 10
-105.802409654782
 20
35.5775316307692
 10
-105.802544307812
 20
35.5773056492308
 10
-105.802613738281
 20
35.5772491538462
 10
-105.802822029688
 20
35.577143225
 10
-105.803099751562
 20
35.5770549509615
 10
-105.803273327734
 20
35.5769666769231
 10
-105.803377473438
 20
35.5769014899408
 10
-105.803655195313
 20
35.5768077836538
 10
-105.803739719361
 20
35.5766842
 10
-105.803784798854
 20
35.5764017230769
 10
-105.803902059201
 20
35.5761192461538
 10
-105.803932917187
 20
35.5759981846154
 10
-105.804018370072
 20
35.5758367692308
 10
-105.804210639063
 20
35.5756778759615
 10
-105.8043495
 20
35.5756778759615
  0
LWPOLYLINE
  5
20015
100
AcDbEntity
  8
0
100
AcDbPolyline
 70
0
 90
21
 38
7520
 10
-105.802054988318
 20
35.5785203
 10
-105.802054988318
 20
35.5783790615385
 10
-105.802120010503
 20
35.5780965846154
 10
-105.802152648758
 20
35.5778141076923
 10
-105.802245222716
 20
35.5775316307692
 10
-105.802266585938
 20
35.5774468876923
 10
-105.802351109986
 20
35.5772491538462
 10
-105.802544307812
 20
35.5770753218935
 10
-105.80282202966
 20
35.5769666769231
 10
-105.802822029688
 20
35.5769666769145
 10
-105.803099751562
 20
35.5768620558405
 10
-105.803377473421
 20
35.5766842
 10
-105.803377473438
 20
35.5766841999834
 10
-105.803582746128
 20
35.5764017230769
 10
-105.803655195313
 20
35.5762322369231
 10
-105.803696339294
 20
35.5761192461538
 10
-105.803710739688
 20
35.5758367692308
 10
-105.803932917187
 20
35.5756107876923
 10
-105.803998263511
 20
35.5755542923077
 10
-105.804210639063
 20
35.5753706823077
 10
-105.8043495
 20
35.5753706823077
  0
LWPOLYLINE
  5
20016
100
AcDbEntity
  8
0
100
AcDbPolyline
 70
0
 90
21
 38
7530
 10
-105.802121112574
 20
35.5785203
 10
-105.802121112574
 20
35.5783790615385
 10
-105.802197155469
 20
35.5780965846154
 10
-105.802223859495
 20
35.5778141076923
 10
-105.802266585938
 20
35.5776837337278
 10
-105.802325496638
 20
35.5775316307692
 10
-105.802471858628
 20
35.5772491538462
 10
-105.802544307812
 20
35.5771839668639
 10
-105.802822029688
 20
35.5770549509615
 10
-105.803099751535
 20
35.5769666769231
 10
-105.803099751562
 20
35.5769666769126
 10
-105.803377473438
 20
35.5767928449704
 10
-105.803591105649
 20
35.5766842
 10
-105.803655195313
 20
35.5765631384615
 10
-105.803692224896
 20
35.5764017230769
 10
-105.803799199248
 20
35.5761192461538
 10
-105.803849600625
 20
35.5758367692308
 10
-105.803932917187
 20
35.5757520261539
 10
-105.80416162932
 20
35.5755542923077
 10
-105.804210639063
 20
35.5755119207692
 10
-105.8043495
 20
35.5755119207692
  0
LWPOLYLINE
  5
20017
100
AcDbEntity
  8
0
100
AcDbPolyline
 70
0
 90
5
 38
7270
 10
-105.799489367188
 20
35.5751414414201
 10
-105.799401665543
 20
35.5752718153846
 10
-105.799489367188
 20
35.5755542922606
 10
-105.799767089016
 20
35.5752718153846
 10
-105.799489367188
 20
35.5751414414201
  0
LWPOLYLINE
  5
20018
100
AcDbEntity
  8
0
100
AcDbPolyline
 70
0
 90
23
 38
7510
 10
-105.801988864056
 20
35.5785203
 10
-105.801988864056
 20
35.5783790615385
 10
-105.801988864063
 20
35.5783790614981
 10
-105.802042865538
 20
35.5780965846154
 10
-105.802081438021
 20
35.5778141076923
 10
-105.802174011979
 20
35.5775316307692
 10
-105.802241338494
 20
35.5772491538462
 10
-105.802266585938
 20
35.5772123090301
 10
-105.802544307799
 20
35.5769666769231
 10
-105.802544307812
 20
35.5769666769137
 10
-105.802822029688
 20
35.5768810778555
 10
-105.803099751562
 20
35.5767574347578
 10
-105.803214107629
 20
35.5766842
 10
-105.803377473438
 20
35.5765180371041
 10
-105.803461997486
 20
35.5764017230769
 10
-105.803591105649
 20
35.5761192461538
 10
-105.803597735614
 20
35.5758367692308
 10
-105.803655195313
 20
35.5757063952663
 10
-105.803804737861
 20
35.5755542923077
 10
-105.803932917187
 20
35.5754650890688
 10
-105.804158566211
 20
35.5752718153846
 10
-105.804210639063
 20
35.5752066284024
 10
-105.8043495
 20
35.5752066284024
  0
LWPOLYLINE
  5
20019
100
AcDbEntity
  8
0
100
AcDbPolyline
 70
0
 90
5
 38
7270
 10
-105.799767089062
 20
35.574858964497
 10
-105.799638909736
 20
35.5749893384615
 10
-105.799767089062
 20
35.5752718153375
 10
-105.799871234766
 20
35.5749893384615
 10
-105.799767089062
 20
35.574858964497
  0
LWPOLYLINE
  5
2001A
100
AcDbEntity
  8
0
100
AcDbPolyline
 70
0
 90
24
 38
7500
 10
-105.801928489742
 20
35.5785203
 10
-105.801928489742
 20
35.5783790615385
 10
-105.801963616619
 20
35.5780965846154
 10
-105.801988864063
 20
35.5779553461068
 10
-105.802010227284
 20
35.5778141076923
 10
-105.802102801242
 20
35.5775316307692
 10
-105.80215718035
 20
35.5772491538462
 10
-105.802266585938
 20
35.5770894929766
 10
-105.802405446861
 20
35.5769666769231
 10
-105.802544307812
 20
35.5768725179487
 10
-105.802822029688
 20
35.5767954787879
 10
-105.803047678711
 20
35.5766842
 10
-105.803099751562
 20
35.5766395983806
 10
-105.803333622615
 20
35.5764017230769
 10
-105.803377473438
 20
35.5763365360947
 10
-105.803484289543
 20
35.5761192461538
 10
-105.80350196945
 20
35.5758367692308
 10
-105.80361897072
 20
35.5755542923077
 10
-105.803655195313
 20
35.5755096906883
 10
-105.803932917187
 20
35.575316417004
 10
-105.803984990039
 20
35.5752718153846
 10
-105.804210639045
 20
35.5749893384615
 10
-105.804210639063
 20
35.5749893384333
 10
-105.8043495
 20
35.5749893384333
  0
LWPOLYLINE
  5
2001B
100
AcDbEntity
  8
0
100
AcDbPolyline
 70
0
 90
25
 38
7480
 10
-105.801807741101
 20
35.5785203
 10
-105.801807741101
 20
35.5783790615385
 10
-105.801795300331
 20
35.5780965846154
 10
-105.801857717622
 20
35.5778141076923
 10
-105.801955200805
 20
35.5775316307692
 10
-105.801988864052
 20
35.5772491538462
 10
-105.801988864063
 20
35.5772491538244
 10
-105.802145837296
 20
35.5769666769231
 10
-105.802266585938
 20
35.5768254384474
 10
-105.802544307785
 20
35.5766842
 10
-105.802544307812
 20
35.5766841999851
 10
-105.802822029688
 20
35.5765853330769
 10
-105.803034405239
 20
35.5764017230769
 10
-105.803099751562
 20
35.5763452276923
 10
-105.803270657332
 20
35.5761192461538
 10
-105.803302702163
 20
35.5758367692308
 10
-105.803377473423
 20
35.5755542923077
 10
-105.803377473438
 20
35.575554292286
 10
-105.803589848989
 20
35.5752718153846
 10
-105.803655195313
 20
35.57521532
 10
-105.803877372813
 20
35.5749893384615
 10
-105.803932917187
 20
35.5749228733032
 10
-105.804089890421
 20
35.5747068615385
 10
-105.804210639063
 20
35.5745303134615
 10
-105.8043495
 20
35.5745303134615
  0
LWPOLYLINE
  5
2001C
100
AcDbEntity
  8
0
100
AcDbPolyline
 70
0
 90
25
 38
7490
 10
-105.801868115421
 20
35.5785203
 10
-105.801868115421
 20
35.5783790615385
 10
-105.801879458475
 20
35.5780965846154
 10
-105.801934862587
 20
35.5778141076923
 10
-105.801988864063
 20
35.5776620047337
 10
-105.802031590505
 20
35.5775316307692
 10
-105.802073022206
 20
35.5772491538462
 10
-105.802266585925
 20
35.5769666769231
 10
-105.802266585938
 20
35.576966676909
 10
-105.802544307812
 20
35.5767783589744
 10
-105.802822029688
 20
35.5767098797203
 10
-105.802874102539
 20
35.5766842
 10
-105.803099751562
 20
35.5764909263158
 10
-105.803187453207
 20
35.5764017230769
 10
-105.803377473427
 20
35.5761192461538
 10
-105.803377473438
 20
35.5761192460597
 10
-105.803406203287
 20
35.5758367692308
 10
-105.803498222079
 20
35.5755542923077
 10
-105.803655195313
 20
35.5753610186235
 10
-105.803783374639
 20
35.5752718153846
 10
-105.803932917187
 20
35.575119712426
 10
-105.804037062891
 20
35.5749893384615
 10
-105.80421063905
 20
35.5747068615385
 10
-105.804210639063
 20
35.5747068615208
 10
-105.8043495
 20
35.5747068615208
  0
LWPOLYLINE
  5
2001D
100
AcDbEntity
  8
0
100
AcDbPolyline
 70
0
 90
5
 38
7360
 10
-105.798471053646
 20
35.5744243846154
 10
-105.798656201563
 20
35.5742360666667
 10
-105.798680351291
 20
35.5744243846154
 10
-105.798656201563
 20
35.5744678426036
 10
-105.798471053646
 20
35.5744243846154
  0
LWPOLYLINE
  5
2001E
100
AcDbEntity
  8
0
100
AcDbPolyline
 70
0
 90
28
 38
7470
 10
-105.80174736678
 20
35.5785203
 10
-105.80174736678
 20
35.5783790615385
 10
-105.801711142188
 20
35.5780965846625
 10
-105.801711142178
 20
35.5780965846154
 10
-105.801711142188
 20
35.578096584584
 10
-105.801780572656
 20
35.5778141076923
 10
-105.801871042661
 20
35.5775316307692
 10
-105.801882047957
 20
35.5772491538462
 10
-105.801988864063
 20
35.5770318639053
 10
-105.802025088655
 20
35.5769666769231
 10
-105.802266585927
 20
35.5766842
 10
-105.802266585938
 20
35.5766841999872
 10
-105.802544307812
 20
35.5765355279352
 10
-105.802822029688
 20
35.5764440946154
 10
-105.80287103943
 20
35.5764017230769
 10
-105.803099751562
 20
35.5762039892308
 10
-105.803163841226
 20
35.5761192461538
 10
-105.803195886058
 20
35.5758367692308
 10
-105.80323130403
 20
35.5755542923077
 10
-105.803377473438
 20
35.5753370023669
 10
-105.80342648318
 20
35.5752718153846
 10
-105.803655195313
 20
35.5750740815385
 10
-105.803738511875
 20
35.5749893384615
 10
-105.803932917187
 20
35.5747567104072
 10
-105.80396914178
 20
35.5747068615385
 10
-105.804155094688
 20
35.5744243846154
 10
-105.804210639063
 20
35.5743374686391
 10
-105.8043495
 20
35.5743374686391
  0
LWPOLYLINE
  5
2001F
100
AcDbEntity
  8
0
100
AcDbPolyline
 70
0
 90
45
 38
7350
 10
-105.7954624
 20
35.5770070307692
 10
-105.795601260938
 20
35.5770070307692
 10
-105.795878982813
 20
35.5770535928994
 10
-105.796156704688
 20
35.5769884059172
 10
-105.796434426562
 20
35.5770535928994
 10
-105.796712148438
 20
35.5771863811966
 10
-105.796897296354
 20
35.5772491538462
 10
-105.796989870313
 20
35.5772708828402
 10
-105.7970176425
 20
35.5772491538462
 10
-105.797267592188
 20
35.5769949246154
 10
-105.797295364375
 20
35.5769666769231
 10
-105.797417134736
 20
35.5766842
 10
-105.79748359809
 20
35.5764017230769
 10
-105.797545314063
 20
35.5762134051282
 10
-105.79757308625
 20
35.5761192461538
 10
-105.797761319965
 20
35.5758367692308
 10
-105.797823035937
 20
35.5757426102564
 10
-105.797934124688
 20
35.5755542923077
 10
-105.797934124688
 20
35.5752718153846
 10
-105.798066042578
 20
35.5749893384615
 10
-105.798100757813
 20
35.574926565812
 10
-105.798222261133
 20
35.5747068615385
 10
-105.798222261133
 20
35.5744243846154
 10
-105.798306030503
 20
35.5741419076923
 10
-105.798378479687
 20
35.5740571646154
 10
-105.798656201563
 20
35.5739463467456
 10
-105.798812420117
 20
35.5741419076923
 10
-105.798801099932
 20
35.5744243846154
 10
-105.798656201563
 20
35.5746851325444
 10
-105.798628429375
 20
35.5747068615385
 10
-105.79844019566
 20
35.5749893384615
 10
-105.798616527009
 20
35.5752718153846
 10
-105.798534698242
 20
35.5755542923077
 10
-105.798476499173
 20
35.5758367692308
 10
-105.798522128933
 20
35.5761192461538
 10
-105.798538703846
 20
35.5764017230769
 10
-105.798538703846
 20
35.5766842
 10
-105.798589165248
 20
35.5769666769231
 10
-105.798645519952
 20
35.5772491538462
 10
-105.798646944167
 20
35.5775316307692
 10
-105.798581430288
 20
35.5778141076923
 10
-105.798450928872
 20
35.5780965846154
 10
-105.798378479687
 20
35.5782660707692
 10
-105.798330180231
 20
35.5783790615385
 10
-105.798330180231
 20
35.5785203
  0
LWPOLYLINE
  5
20020
100
AcDbEntity
  8
0
100
AcDbPolyline
 70
0
 90
28
 38
7450
 10
-105.80154209409
 20
35.5785203
 10
-105.80154209409
 20
35.5783790615385
 10
-105.80151960986
 20
35.5780965846154
 10
-105.801558395156
 20
35.5778141076923
 10
-105.801694805607
 20
35.5775316307692
 10
-105.801655597812
 20
35.5772491538462
 10
-105.801711142188
 20
35.5770608358974
 10
-105.801740376069
 20
35.5769666769231
 10
-105.801988864063
 20
35.5767578896321
 10
-105.802052953726
 20
35.5766842
 10
-105.802266585938
 20
35.5764274027972
 10
-105.80230931238
 20
35.5764017230769
 10
-105.802544307812
 20
35.5762463607692
 10
-105.8027942575
 20
35.5761192461538
 10
-105.802822029688
 20
35.5760909984615
 10
-105.802947004531
 20
35.5758367692308
 10
-105.802966928057
 20
35.5755542923077
 10
-105.803099751562
 20
35.5753152733728
 10
-105.803128985444
 20
35.5752718153846
 10
-105.803321929063
 20
35.5749893384615
 10
-105.803377473438
 20
35.5749328430769
 10
-105.803638858732
 20
35.5747068615385
 10
-105.803655195313
 20
35.5746902452489
 10
-105.803877372813
 20
35.5744243846154
 10
-105.803932917187
 20
35.5743374686391
 10
-105.804057892031
 20
35.5741419076923
 10
-105.804210639063
 20
35.5739591285068
 10
-105.8043495
 20
35.5739591285068
  0
LWPOLYLINE
  5
20021
100
AcDbEntity
  8
0
100
AcDbPolyline
 70
0
 90
28
 38
7460
 10
-105.801662842731
 20
35.5785203
 10
-105.801662842731
 20
35.5783790615385
 10
-105.801615376024
 20
35.5780965846154
 10
-105.801697256094
 20
35.5778141076923
 10
-105.801711142188
 20
35.57778586
 10
-105.801786884517
 20
35.5775316307692
 10
-105.801775231851
 20
35.5772491538462
 10
-105.801886545477
 20
35.5769666769231
 10
-105.801988864063
 20
35.5768807056856
 10
-105.802159769832
 20
35.5766842
 10
-105.802266585938
 20
35.5765558013986
 10
-105.802522944591
 20
35.5764017230769
 10
-105.802544307812
 20
35.5763875992308
 10
-105.802822029688
 20
35.5762781394231
 10
-105.803014298678
 20
35.5761192461538
 10
-105.803085865469
 20
35.5758367692308
 10
-105.803087676698
 20
35.5755542923077
 10
-105.803099751562
 20
35.5755325633136
 10
-105.803275154852
 20
35.5752718153846
 10
-105.803377473438
 20
35.575119712426
 10
-105.803544106562
 20
35.5749893384615
 10
-105.803655195313
 20
35.5749024224852
 10
-105.803811413867
 20
35.5747068615385
 10
-105.803932917187
 20
35.5745547585799
 10
-105.80401623375
 20
35.5744243846154
 10
-105.804196752969
 20
35.5741419076923
 10
-105.804210639063
 20
35.5741252914027
 10
-105.8043495
 20
35.5741252914027
  0
LWPOLYLINE
  5
20022
100
AcDbEntity
  8
0
100
AcDbPolyline
 70
0
 90
44
 38
7330
 10
-105.7954624
 20
35.5764723423077
 10
-105.795601260938
 20
35.5764723423077
 10
-105.795878982813
 20
35.5764420769231
 10
-105.796156704688
 20
35.5765147138462
 10
-105.796434426562
 20
35.5765994569231
 10
-105.796712148438
 20
35.5765538260355
 10
-105.79690655375
 20
35.5764017230769
 10
-105.796989870313
 20
35.5762806615385
 10
-105.797100959063
 20
35.5761192461538
 10
-105.797203502524
 20
35.5758367692308
 10
-105.797267592188
 20
35.5757157076923
 10
-105.797378680937
 20
35.5755542923077
 10
-105.797426290402
 20
35.5752718153846
 10
-105.797545314063
 20
35.5751507538462
 10
-105.797656402813
 20
35.5749893384615
 10
-105.797823035937
 20
35.5748198523077
 10
-105.797888382261
 20
35.5747068615385
 10
-105.797943784579
 20
35.5744243846154
 10
-105.79805174807
 20
35.5741419076923
 10
-105.798100757813
 20
35.5740767207101
 10
-105.798274333984
 20
35.5738594307692
 10
-105.798378479687
 20
35.5737535019231
 10
-105.798656201563
 20
35.5735935701357
 10
-105.798933923438
 20
35.5737535019231
 10
-105.798998013101
 20
35.5738594307692
 10
-105.799031501394
 20
35.5741419076923
 10
-105.799020112985
 20
35.5744243846154
 10
-105.798975581719
 20
35.5747068615385
 10
-105.798933923438
 20
35.5748279230769
 10
-105.798868577114
 20
35.5749893384615
 10
-105.798816102036
 20
35.5752718153846
 10
-105.798789919502
 20
35.5755542923077
 10
-105.798725632031
 20
35.5758367692308
 10
-105.798711745938
 20
35.5761192461538
 10
-105.798731943892
 20
35.5764017230769
 10
-105.79874239111
 20
35.5766842
 10
-105.798789919502
 20
35.5769666769231
 10
-105.798816102036
 20
35.5772491538462
 10
-105.798838157274
 20
35.5775316307692
 10
-105.798776547708
 20
35.5778141076923
 10
-105.798692426155
 20
35.5780965846154
 10
-105.798656201563
 20
35.5781813276923
 10
-105.798571677514
 20
35.5783790615385
 10
-105.798571677514
 20
35.5785203
  0
LWPOLYLINE
  5
20023
100
AcDbEntity
  8
0
100
AcDbPolyline
 70
0
 90
47
 38
7340
 10
-105.7954624
 20
35.5768077836538
 10
-105.795601260938
 20
35.5768077836538
 10
-105.795878982813
 20
35.5767971907692
 10
-105.796156704688
 20
35.5767711159763
 10
-105.796434426562
 20
35.5768363029586
 10
-105.796712148438
 20
35.5768456153846
 10
-105.796989870313
 20
35.5767548192308
 10
-105.797059300781
 20
35.5766842
 10
-105.797184275625
 20
35.5764017230769
 10
-105.797267592188
 20
35.5762806615385
 10
-105.797353045072
 20
35.5761192461538
 10
-105.7974619975
 20
35.5758367692308
 10
-105.797545314063
 20
35.5757157076923
 10
-105.797656402813
 20
35.5755542923077
 10
-105.797694856611
 20
35.5752718153846
 10
-105.797823035937
 20
35.5751023292308
 10
-105.797892466406
 20
35.5749893384615
 10
-105.79805174807
 20
35.5747068615385
 10
-105.79806453322
 20
35.5744243846154
 10
-105.798100757813
 20
35.5743396415385
 10
-105.798185281861
 20
35.5741419076923
 10
-105.798378479687
 20
35.5739159261538
 10
-105.798489568438
 20
35.5738594307692
 10
-105.798656201563
 20
35.5737597330317
 10
-105.798822834687
 20
35.5738594307692
 10
-105.798933923438
 20
35.5740208461539
 10
-105.798956441427
 20
35.5741419076923
 10
-105.798933923438
 20
35.5743537653846
 10
-105.798921848573
 20
35.5744243846154
 10
-105.798812420117
 20
35.5747068615385
 10
-105.798705211305
 20
35.5749893384615
 10
-105.798731943892
 20
35.5752718153846
 10
-105.798687059549
 20
35.5755542923077
 10
-105.798656201563
 20
35.57576615
 10
-105.798639864982
 20
35.5758367692308
 10
-105.798617895097
 20
35.5761192461538
 10
-105.798645519952
 20
35.5764017230769
 10
-105.798645519952
 20
35.5766842
 10
-105.798656201563
 20
35.5767548192308
 10
-105.798687059549
 20
35.5769666769231
 10
-105.798731943892
 20
35.5772491538462
 10
-105.79874239111
 20
35.5775316307692
 10
-105.79868397375
 20
35.5778141076923
 10
-105.798656201563
 20
35.5778988507692
 10
-105.798571677514
 20
35.5780965846154
 10
-105.798450928872
 20
35.5783790615385
 10
-105.798450928872
 20
35.5785203
  0
LWPOLYLINE
  5
20024
100
AcDbEntity
  8
0
100
AcDbPolyline
 70
0
 90
31
 38
7430
 10
-105.80113834082
 20
35.5785203
 10
-105.80113834082
 20
35.5783790615385
 10
-105.801155698437
 20
35.5783319820513
 10
-105.801242486523
 20
35.5780965846154
 10
-105.801300596807
 20
35.5778141076923
 10
-105.801374952549
 20
35.5775316307692
 10
-105.80139069387
 20
35.5772491538462
 10
-105.801433420313
 20
35.5771622378698
 10
-105.801525994271
 20
35.5769666769231
 10
-105.801699067323
 20
35.5766842
 10
-105.801711142188
 20
35.5766665451923
 10
-105.801988864063
 20
35.5764370326923
 10
-105.80201663625
 20
35.5764017230769
 10
-105.802266585938
 20
35.5761806541806
 10
-105.802353374023
 20
35.5761192461538
 10
-105.802544307812
 20
35.575984148495
 10
-105.802689206182
 20
35.5758367692308
 10
-105.802754703172
 20
35.5755542923077
 10
-105.802822029688
 20
35.575380460355
 10
-105.802882404008
 20
35.5752718153846
 10
-105.803051452106
 20
35.5749893384615
 10
-105.803099751562
 20
35.5749298696356
 10
-105.803319005674
 20
35.5747068615385
 10
-105.803377473438
 20
35.5746362423077
 10
-105.803585764844
 20
35.5744243846154
 10
-105.803655195313
 20
35.5743374686391
 10
-105.803780170156
 20
35.5741419076923
 10
-105.803932917187
 20
35.5739028887574
 10
-105.803967632422
 20
35.5738594307692
 10
-105.804210639063
 20
35.5736512898785
 10
-105.8043495
 20
35.5736512898785
  0
LWPOLYLINE
  5
20025
100
AcDbEntity
  8
0
100
AcDbPolyline
 70
0
 90
30
 38
7440
 10
-105.801405648125
 20
35.5785203
 10
-105.801405648125
 20
35.5783790615385
 10
-105.801416062695
 20
35.5780965846154
 10
-105.801421345448
 20
35.5778141076923
 10
-105.801433420313
 20
35.5777737538462
 10
-105.801531439798
 20
35.5775316307692
 10
-105.801516736875
 20
35.5772491538462
 10
-105.801628854225
 20
35.5769666769231
 10
-105.801711142188
 20
35.5768337466063
 10
-105.801903411178
 20
35.5766842
 10
-105.801988864063
 20
35.5766135807692
 10
-105.802155497187
 20
35.5764017230769
 10
-105.802266585938
 20
35.5763034702341
 10
-105.802526950195
 20
35.5761192461538
 10
-105.802544307812
 20
35.5761069645485
 10
-105.802809954823
 20
35.5758367692308
 10
-105.802822029688
 20
35.5757426102564
 10
-105.802846179416
 20
35.5755542923077
 10
-105.803003152649
 20
35.5752718153846
 10
-105.803099751562
 20
35.5751104
 10
-105.803183068125
 20
35.5749893384615
 10
-105.803377473438
 20
35.5747916046154
 10
-105.803475492923
 20
35.5747068615385
 10
-105.803655195313
 20
35.5745240823529
 10
-105.803738511875
 20
35.5744243846154
 10
-105.803919031094
 20
35.5741419076923
 10
-105.803932917187
 20
35.5741201786982
 10
-105.804141208594
 20
35.5738594307692
 10
-105.804210639063
 20
35.5737999619433
 10
-105.8043495
 20
35.5737999619433
  0
LWPOLYLINE
  5
20026
100
AcDbEntity
  8
0
100
AcDbPolyline
 70
0
 90
47
 38
7320
 10
-105.7954624
 20
35.57594976
 10
-105.795601260938
 20
35.57594976
 10
-105.795878982813
 20
35.5759981846154
 10
-105.796156704688
 20
35.5761192461256
 10
-105.796156704757
 20
35.5761192461538
 10
-105.796434426562
 20
35.5762806615385
 10
-105.796712148438
 20
35.5762806615385
 10
-105.796823237188
 20
35.5761192461538
 10
-105.796989870273
 20
35.5758367692308
 10
-105.796989870273
 20
35.5755542923077
 10
-105.796989870285
 20
35.5752718153846
 10
-105.796989870313
 20
35.5752718153564
 10
-105.79726759216
 20
35.5749893384615
 10
-105.797267592188
 20
35.5749893384333
 10
-105.797545314063
 20
35.5748198523077
 10
-105.797656402813
 20
35.5747068615385
 10
-105.79782303591
 20
35.5744243846154
 10
-105.797823035937
 20
35.5744243845448
 10
-105.797888382261
 20
35.5741419076923
 10
-105.798100757796
 20
35.5738594307692
 10
-105.798100757813
 20
35.5738594307491
 10
-105.798378479668
 20
35.5735769538462
 10
-105.798378479687
 20
35.5735769538058
 10
-105.798656201563
 20
35.5733813928994
 10
-105.798933923438
 20
35.573576953832
 10
-105.798933923454
 20
35.5735769538462
 10
-105.799104829207
 20
35.5738594307692
 10
-105.79910656136
 20
35.5741419076923
 10
-105.799115879149
 20
35.5744243846154
 10
-105.799114442656
 20
35.5747068615385
 10
-105.798998013101
 20
35.5749893384615
 10
-105.798933923438
 20
35.5751588246154
 10
-105.79890026018
 20
35.5752718153846
 10
-105.798892779456
 20
35.5755542923077
 10
-105.798802776997
 20
35.5758367692308
 10
-105.798804319896
 20
35.5761192461538
 10
-105.798816102036
 20
35.5764017230769
 10
-105.798838157274
 20
35.5766842
 10
-105.798892779456
 20
35.5769666769231
 10
-105.79890026018
 20
35.5772491538462
 10
-105.798933923438
 20
35.5775316306986
 10
-105.798933923451
 20
35.5775316307692
 10
-105.798933923438
 20
35.5775316308096
 10
-105.798869121667
 20
35.5778141076923
 10
-105.798813174796
 20
35.5780965846154
 10
-105.798739518125
 20
35.5783790615385
 10
-105.798739518125
 20
35.5785203
  0
LWPOLYLINE
  5
20027
100
AcDbEntity
  8
0
100
AcDbPolyline
 70
0
 90
32
 38
7420
 10
-105.800964764648
 20
35.5785203
 10
-105.800964764648
 20
35.5783790615385
 10
-105.801095324117
 20
35.5780965846154
 10
-105.801155698437
 20
35.5778948153846
 10
-105.801179848166
 20
35.5778141076923
 10
-105.801228783141
 20
35.5775316307692
 10
-105.801283877764
 20
35.5772491538462
 10
-105.801423843696
 20
35.5769666769231
 10
-105.801433420313
 20
35.576944947929
 10
-105.801578318682
 20
35.5766842
 10
-105.801711142188
 20
35.5764899971154
 10
-105.801817958293
 20
35.5764017230769
 10
-105.801988864063
 20
35.5762887323077
 10
-105.802184903033
 20
35.5761192461538
 10
-105.802266585938
 20
35.5760578381271
 10
-105.802544307812
 20
35.5758613324415
 10
-105.802568457541
 20
35.5758367692308
 10
-105.802670545028
 20
35.5755542923077
 10
-105.802775742708
 20
35.5752718153846
 10
-105.802822029688
 20
35.5751709307692
 10
-105.802930703465
 20
35.5749893384615
 10
-105.803099751562
 20
35.5747811975709
 10
-105.803172836266
 20
35.5747068615385
 10
-105.803377473438
 20
35.5744596942308
 10
-105.803412188672
 20
35.5744243846154
 10
-105.803637837695
 20
35.5741419076923
 10
-105.803655195313
 20
35.57411366
 10
-105.80380222454
 20
35.5738594307692
 10
-105.803932917187
 20
35.5737265004525
 10
-105.804111452679
 20
35.5735769538462
 10
-105.804210639063
 20
35.5734357153564
 10
-105.8043495
 20
35.5734357153564
  0
LWPOLYLINE
  5
20028
100
AcDbEntity
  8
0
100
AcDbPolyline
 70
0
 90
11
 38
7260
 10
-105.796712148438
 20
35.5732097338462
 10
-105.796593124777
 20
35.5732944769231
 10
-105.796434426562
 20
35.5734558923077
 10
-105.796392768281
 20
35.5735769538462
 10
-105.796434426562
 20
35.5736980153846
 10
-105.796712148438
 20
35.5738594307378
 10
-105.796989870313
 20
35.5736828826923
 10
-105.797118049639
 20
35.5735769538462
 10
-105.797267592095
 20
35.5732944769231
 10
-105.796989870313
 20
35.5731734153846
 10
-105.796712148438
 20
35.5732097338462
  0
LWPOLYLINE
  5
20029
100
AcDbEntity
  8
0
100
AcDbPolyline
 70
0
 90
34
 38
7410
 10
-105.800796293658
 20
35.5785203
 10
-105.800796293658
 20
35.5783790615385
 10
-105.800877976563
 20
35.578270416568
 10
-105.800974575476
 20
35.5780965846154
 10
-105.801070245553
 20
35.5778141076923
 10
-105.801113619366
 20
35.5775316307692
 10
-105.801155698437
 20
35.5773298615385
 10
-105.801177061659
 20
35.5772491538462
 10
-105.801328077532
 20
35.5769666769231
 10
-105.801433420313
 20
35.5767276579882
 10
-105.801457570041
 20
35.5766842
 10
-105.801629459283
 20
35.5764017230769
 10
-105.801711142188
 20
35.5762930781065
 10
-105.801988864063
 20
35.5761474938462
 10
-105.802021537224
 20
35.5761192461538
 10
-105.802266585938
 20
35.5759350220736
 10
-105.802405446858
 20
35.5758367692308
 10
-105.802544307812
 20
35.5756629372781
 10
-105.802586386884
 20
35.5755542923077
 10
-105.802683168741
 20
35.5752718153846
 10
-105.802807412747
 20
35.5749893384615
 10
-105.802822029688
 20
35.5749716836538
 10
-105.803030321094
 20
35.5747068615385
 10
-105.803099751562
 20
35.5746237800905
 10
-105.803266384688
 20
35.5744243846154
 10
-105.803377473438
 20
35.5742505526627
 10
-105.803464261523
 20
35.5741419076923
 10
-105.803637837695
 20
35.5738594307692
 10
-105.803655195313
 20
35.5738123512821
 10
-105.803886630208
 20
35.5735769538462
 10
-105.803932917187
 20
35.5735455675214
 10
-105.804103822957
 20
35.5732944769231
 10
-105.804210639063
 20
35.5730927076923
 10
-105.8043495
 20
35.5730927076923
  0
LWPOLYLINE
  5
2002A
100
AcDbEntity
  8
0
100
AcDbPolyline
 70
0
 90
37
 38
7390
 10
-105.800429348918
 20
35.5785203
 10
-105.800429348918
 20
35.5783790615385
 10
-105.800600254688
 20
35.5782052295858
 10
-105.800681937592
 20
35.5780965846154
 10
-105.800853826834
 20
35.5778141076923
 10
-105.800877976563
 20
35.5777576123077
 10
-105.800945303078
 20
35.5775316307692
 10
-105.800983319343
 20
35.5772491538462
 10
-105.801135126447
 20
35.5769666769231
 10
-105.801155698437
 20
35.5769232189349
 10
-105.801261041218
 20
35.5766842
 10
-105.801336821399
 20
35.5764017230769
 10
-105.801433420313
 20
35.5761757415385
 10
-105.801473094866
 20
35.5761192461538
 10
-105.801711142188
 20
35.5759198506787
 10
-105.801909514955
 20
35.5758367692308
 10
-105.801988864063
 20
35.5757933112426
 10
-105.802266585938
 20
35.5756373737557
 10
-105.802336016406
 20
35.5755542923077
 10
-105.802457519727
 20
35.5752718153846
 10
-105.802511634651
 20
35.5749893384615
 10
-105.802544307812
 20
35.5749328430769
 10
-105.802715213582
 20
35.5747068615385
 10
-105.802822029688
 20
35.574598216568
 10
-105.802960890608
 20
35.5744243846154
 10
-105.803099751562
 20
35.5741984030769
 10
-105.803132424724
 20
35.5741419076923
 10
-105.803290685352
 20
35.5738594307692
 10
-105.803344800276
 20
35.5735769538462
 10
-105.803377473438
 20
35.573435715314
 10
-105.803456822545
 20
35.5732944769231
 10
-105.803655195313
 20
35.5732062028846
 10
-105.803890190745
 20
35.573012
 10
-105.803932917187
 20
35.5729312923077
 10
-105.804014600092
 20
35.5727295230769
 10
-105.804210639063
 20
35.5724874
 10
-105.8043495
 20
35.5724874
  0
LWPOLYLINE
  5
2002B
100
AcDbEntity
  8
0
100
AcDbPolyline
 70
0
 90
36
 38
7400
 10
-105.800632927849
 20
35.5785203
 10
-105.800632927849
 20
35.5783790615385
 10
-105.800845303401
 20
35.5780965846154
 10
-105.800877976563
 20
35.5780400892308
 10
-105.800963429447
 20
35.5778141076923
 10
-105.801029461222
 20
35.5775316307692
 10
-105.801079085506
 20
35.5772491538462
 10
-105.801155698437
 20
35.577107915367
 10
-105.801232311369
 20
35.5769666769231
 10
-105.801356807381
 20
35.5766842
 10
-105.801433420313
 20
35.5764582184615
 10
-105.801466093474
 20
35.5764017230769
 10
-105.801671467634
 20
35.5761192461538
 10
-105.801711142188
 20
35.5760860135747
 10
-105.801988864063
 20
35.5759780076747
 10
-105.802211041563
 20
35.5758367692308
 10
-105.802266585938
 20
35.5758035366516
 10
-105.802474877344
 20
35.5755542923077
 10
-105.802544307812
 20
35.5754130538179
 10
-105.802590594792
 20
35.5752718153846
 10
-105.802661243339
 20
35.5749893384615
 10
-105.802822029688
 20
35.5747951355769
 10
-105.802891460156
 20
35.5747068615385
 10
-105.803099751562
 20
35.5744576171946
 10
-105.80312752375
 20
35.5744243846154
 10
-105.803295790533
 20
35.5741419076923
 10
-105.803377473438
 20
35.5740006692025
 10
-105.803464261523
 20
35.5738594307692
 10
-105.803548379207
 20
35.5735769538462
 10
-105.803655195313
 20
35.5734357153564
 10
-105.80385356808
 20
35.5732944769231
 10
-105.803932917187
 20
35.5732379815385
 10
-105.804071778108
 20
35.573012
 10
-105.804177965901
 20
35.5727295230769
 10
-105.804210639063
 20
35.5726891692308
 10
-105.8043495
 20
35.5726891692308
  0
LWPOLYLINE
  5
2002C
100
AcDbEntity
  8
0
100
AcDbPolyline
 70
0
 90
39
 38
7380
 10
-105.800215716707
 20
35.5785203
 10
-105.800215716707
 20
35.5783790615385
 10
-105.800322532813
 20
35.5782378230487
 10
-105.800461393722
 20
35.5780965846154
 10
-105.800600254688
 20
35.5780083105769
 10
-105.800733078193
 20
35.5778141076923
 10
-105.800853826834
 20
35.5775316307692
 10
-105.800877976563
 20
35.5773433128205
 10
-105.800887553179
 20
35.5772491538462
 10
-105.801032266493
 20
35.5769666769231
 10
-105.801155698437
 20
35.5767059289941
 10
-105.801165275054
 20
35.5766842
 10
-105.801216072758
 20
35.5764017230769
 10
-105.801347967428
 20
35.5761192461538
 10
-105.801433420313
 20
35.576020993311
 10
-105.801641711719
 20
35.5758367692308
 10
-105.801711142188
 20
35.57576615
 10
-105.801988864063
 20
35.5755760213018
 10
-105.802035151042
 20
35.5755542923077
 10
-105.802266585938
 20
35.5753188948718
 10
-105.802283943555
 20
35.5752718153846
 10
-105.802348268842
 20
35.5749893384615
 10
-105.802488763437
 20
35.5747068615385
 10
-105.802544307812
 20
35.5746503661538
 10
-105.802766485313
 20
35.5744243846154
 10
-105.802822029688
 20
35.5743436769231
 10
-105.802928845793
 20
35.5741419076923
 10
-105.803099751562
 20
35.573890817094
 10
-105.80311710918
 20
35.5738594307692
 10
-105.803181434467
 20
35.5735769538462
 10
-105.803238612483
 20
35.5732944769231
 10
-105.803377473438
 20
35.5731755392713
 10
-105.803655195313
 20
35.5730296548077
 10
-105.803676558534
 20
35.573012
 10
-105.803846129102
 20
35.5727295230769
 10
-105.803932917187
 20
35.5726208781065
 10
-105.804071778108
 20
35.5724470461538
 10
-105.804210639063
 20
35.5722732142012
 10
-105.8043495
 20
35.5722732142012
  0
LWPOLYLINE
  5
2002D
100
AcDbEntity
  8
0
100
AcDbPolyline
 70
0
 90
41
 38
7370
 10
-105.800023447716
 20
35.5785203
 10
-105.800023447716
 20
35.5783790615385
 10
-105.800044810938
 20
35.5783508138462
 10
-105.800262158492
 20
35.5780965846154
 10
-105.800322532813
 20
35.578022248583
 10
-105.800600254688
 20
35.5778317625
 10
-105.800612329552
 20
35.5778141076923
 10
-105.800733078193
 20
35.5775316307692
 10
-105.80079466
 20
35.5772491538462
 10
-105.800877976563
 20
35.5770675615385
 10
-105.800929406539
 20
35.5769666769231
 10
-105.80100866921
 20
35.5766842
 10
-105.801082613734
 20
35.5764017230769
 10
-105.801155698437
 20
35.5762930781065
 10
-105.801241151322
 20
35.5761192461538
 10
-105.801433420313
 20
35.5758981772575
 10
-105.801502850781
 20
35.5758367692308
 10
-105.801711142188
 20
35.5756249115385
 10
-105.801810328571
 20
35.5755542923077
 10
-105.801988864063
 20
35.5753000630769
 10
-105.80201663625
 20
35.5752718153846
 10
-105.802159769832
 20
35.5749893384615
 10
-105.802231870703
 20
35.5747068615385
 10
-105.802266585938
 20
35.5746503661538
 10
-105.802488763437
 20
35.5744243846154
 10
-105.802544307812
 20
35.5743436769231
 10
-105.802683168722
 20
35.5741419076923
 10
-105.802822029688
 20
35.5739065102564
 10
-105.802849801875
 20
35.5738594307692
 10
-105.803026666859
 20
35.5735769538462
 10
-105.803075601834
 20
35.5732944769231
 10
-105.803099751562
 20
35.5732591673077
 10
-105.803377473438
 20
35.5730268672065
 10
-105.803405245625
 20
35.573012
 10
-105.803655195313
 20
35.5727577707692
 10
-105.80367255293
 20
35.5727295230769
 10
-105.803890190745
 20
35.5724470461538
 10
-105.803932917187
 20
35.5724117365385
 10
-105.804137554359
 20
35.5721645692308
 10
-105.804210639063
 20
35.572023330741
 10
-105.8043495
 20
35.572023330741
  0
LWPOLYLINE
  5
2002E
100
AcDbEntity
  8
0
100
AcDbPolyline
 70
0
 90
42
 38
7360
 10
-105.799916631611
 20
35.5785203
 10
-105.799916631611
 20
35.5783790615385
 10
-105.800044810938
 20
35.5782095753846
 10
-105.800141409851
 20
35.5780965846154
 10
-105.800322532813
 20
35.5778735765182
 10
-105.800407985697
 20
35.5778141076923
 10
-105.800600254688
 20
35.5775598784615
 10
-105.800612329552
 20
35.5775316307692
 10
-105.800702086042
 20
35.5772491538462
 10
-105.800804891859
 20
35.5769666769231
 10
-105.800843261328
 20
35.5766842
 10
-105.800877976563
 20
35.5765900410256
 10
-105.800936444326
 20
35.5764017230769
 10
-105.801126464556
 20
35.5761192461538
 10
-105.801155698437
 20
35.5760946829431
 10
-105.80138001226
 20
35.5758367692308
 10
-105.801433420313
 20
35.5757725699301
 10
-105.80164802358
 20
35.5755542923077
 10
-105.801711142188
 20
35.5754456473373
 10
-105.801841834835
 20
35.5752718153846
 10
-105.801959630181
 20
35.5749893384615
 10
-105.801988864063
 20
35.5748951794872
 10
-105.802058294531
 20
35.5747068615385
 10
-105.802237352056
 20
35.5744243846154
 10
-105.802266585938
 20
35.5743809266272
 10
-105.802457519727
 20
35.5741419076923
 10
-105.802544307812
 20
35.5739849760684
 10
-105.802629760697
 20
35.5738594307692
 10
-105.802822029688
 20
35.5736638698225
 10
-105.802880497451
 20
35.5735769538462
 10
-105.802954853193
 20
35.5732944769231
 10
-105.803099751562
 20
35.5730826192308
 10
-105.803185204447
 20
35.573012
 10
-105.803377473438
 20
35.5727577707692
 10
-105.803405245625
 20
35.5727295230769
 10
-105.803655195313
 20
35.5724752938462
 10
-105.803676558534
 20
35.5724470461538
 10
-105.803932917187
 20
35.5722351884615
 10
-105.803991384951
 20
35.5721645692308
 10
-105.804147520455
 20
35.5718820923077
 10
-105.804210639063
 20
35.5717734473373
 10
-105.8043495
 20
35.5717734473373
  0
LWPOLYLINE
  5
2002F
100
AcDbEntity
  8
0
100
AcDbPolyline
 70
0
 90
43
 38
7350
 10
-105.799809815505
 20
35.5785203
 10
-105.799809815505
 20
35.5783790615385
 10
-105.800020661209
 20
35.5780965846154
 10
-105.800044810938
 20
35.5780338119658
 10
-105.800194353486
 20
35.5778141076923
 10
-105.800322532813
 20
35.5775719846154
 10
-105.800350305
 20
35.5775316307692
 10
-105.800600254688
 20
35.5772774015385
 10
-105.800609512083
 20
35.5772491538462
 10
-105.800658722451
 20
35.5769666769231
 10
-105.800669685156
 20
35.5766842
 10
-105.800749797236
 20
35.5764017230769
 10
-105.800877976563
 20
35.5762713491124
 10
-105.800980295148
 20
35.5761192461538
 10
-105.801155698437
 20
35.5759718668896
 10
-105.801273196154
 20
35.5758367692308
 10
-105.801433420313
 20
35.5756441713287
 10
-105.801521786364
 20
35.5755542923077
 10
-105.801689778966
 20
35.5752718153846
 10
-105.801711142188
 20
35.575209042735
 10
-105.801813460773
 20
35.5749893384615
 10
-105.80192714809
 20
35.5747068615385
 10
-105.801988864063
 20
35.574576487574
 10
-105.802091182648
 20
35.5744243846154
 10
-105.802266585938
 20
35.5741636366864
 10
-105.802283943555
 20
35.5741419076923
 10
-105.802377674688
 20
35.5738594307692
 10
-105.802544307812
 20
35.5737290568047
 10
-105.802693850361
 20
35.5735769538462
 10
-105.802822029688
 20
35.5733348307692
 10
-105.802834104552
 20
35.5732944769231
 10
-105.802933118438
 20
35.573012
 10
-105.803099751562
 20
35.5727698769231
 10
-105.80312752375
 20
35.5727295230769
 10
-105.803377473438
 20
35.5724752938462
 10
-105.803405245625
 20
35.5724470461538
 10
-105.803655195313
 20
35.5722881528846
 10
-105.803804737861
 20
35.5721645692308
 10
-105.803932917187
 20
35.5720341952663
 10
-105.804021283239
 20
35.5718820923077
 10
-105.804186489334
 20
35.5715996153846
 10
-105.804210639063
 20
35.571536842735
 10
-105.8043495
 20
35.571536842735
  0
LWPOLYLINE
  5
20030
100
AcDbEntity
  8
0
100
AcDbPolyline
 70
0
 90
15
 38
7220
 10
-105.799433822813
 20
35.5711759
 10
-105.799433822813
 20
35.5713171384615
 10
-105.799489367188
 20
35.5714112974359
 10
-105.799674515104
 20
35.5715996153846
 10
-105.799674515104
 20
35.5718820923077
 10
-105.799767089062
 20
35.5720704102564
 10
-105.799859663021
 20
35.5721645692308
 10
-105.800044810938
 20
35.5722587282051
 10
-105.800229958854
 20
35.5721645692308
 10
-105.800322532813
 20
35.5720704102564
 10
-105.800378077188
 20
35.5718820923077
 10
-105.800476822743
 20
35.5715996153846
 10
-105.800322532813
 20
35.5713642179487
 10
-105.800276245833
 20
35.5713171384615
 10
-105.800276245833
 20
35.5711759
  0
LWPOLYLINE
  5
20031
100
AcDbEntity
  8
0
100
AcDbPolyline
 70
0
 90
19
 38
7230
 10
-105.799156100938
 20
35.5711759
 10
-105.799156100938
 20
35.5713171384615
 10
-105.799211645312
 20
35.5713736338462
 10
-105.799370343527
 20
35.5715996153846
 10
-105.799391347702
 20
35.5718820923077
 10
-105.799460133306
 20
35.5721645692308
 10
-105.799489367188
 20
35.5722587282051
 10
-105.799674515104
 20
35.5724470461538
 10
-105.799767089062
 20
35.5726353641026
 10
-105.800044810938
 20
35.5726165323077
 10
-105.800322532813
 20
35.5725035415385
 10
-105.800365259255
 20
35.5724470461538
 10
-105.8005724825
 20
35.5721645692308
 10
-105.800600254688
 20
35.5720704102564
 10
-105.800634969922
 20
35.5718820923077
 10
-105.800698274173
 20
35.5715996153846
 10
-105.800600254688
 20
35.5713574923077
 10
-105.8005724825
 20
35.5713171384615
 10
-105.8005724825
 20
35.5711759
  0
LWPOLYLINE
  5
20032
100
AcDbEntity
  8
0
100
AcDbPolyline
 70
0
 90
23
 38
7240
 10
-105.798872207465
 20
35.5711759
 10
-105.798872207465
 20
35.5713171384615
 10
-105.798933923438
 20
35.5713605964497
 10
-105.79916891887
 20
35.5715996153846
 10
-105.799211645312
 20
35.5717879333333
 10
-105.799227981893
 20
35.5718820923077
 10
-105.799313963898
 20
35.5721645692308
 10
-105.799391347702
 20
35.5724470461538
 10
-105.799489367188
 20
35.5726891692308
 10
-105.799517139375
 20
35.5727295230769
 10
-105.799767089062
 20
35.5729837523077
 10
-105.799859663021
 20
35.573012
 10
-105.800044810938
 20
35.5731061589744
 10
-105.80008753738
 20
35.573012
 10
-105.800322532813
 20
35.5727729810651
 10
-105.800357248047
 20
35.5727295230769
 10
-105.800578891466
 20
35.5724470461538
 10
-105.800600254688
 20
35.5724187984615
 10
-105.800725229531
 20
35.5721645692308
 10
-105.800808546094
 20
35.5718820923077
 10
-105.800861639982
 20
35.5715996153846
 10
-105.800850204375
 20
35.5713171384615
 10
-105.800850204375
 20
35.5711759
  0
LWPOLYLINE
  5
20033
100
AcDbEntity
  8
0
100
AcDbPolyline
 70
0
 90
10
 38
7240
 10
-105.797452740104
 20
35.5711759
 10
-105.797452740104
 20
35.5713171384615
 10
-105.797307266741
 20
35.5715996153846
 10
-105.797360166146
 20
35.5718820923077
 10
-105.797545314063
 20
35.5719762512821
 10
-105.797637888021
 20
35.5718820923077
 10
-105.797783361384
 20
35.5715996153846
 10
-105.797823035937
 20
35.5715592615385
 10
-105.798061083259
 20
35.5713171384615
 10
-105.798061083259
 20
35.5711759
  0
LWPOLYLINE
  5
20034
100
AcDbEntity
  8
0
100
AcDbPolyline
 70
0
 90
45
 38
7250
 10
-105.797139412861
 20
35.5711759
 10
-105.797139412861
 20
35.5713171384615
 10
-105.7970176425
 20
35.5715996153846
 10
-105.796989870313
 20
35.5716702346154
 10
-105.796870846652
 20
35.5718820923077
 10
-105.796781578906
 20
35.5721645692308
 10
-105.796989870313
 20
35.5722856307692
 10
-105.797267592188
 20
35.5723340553846
 10
-105.797545314063
 20
35.5724066923077
 10
-105.797783361384
 20
35.5721645692308
 10
-105.797823035937
 20
35.5721242153846
 10
-105.797951215264
 20
35.5718820923077
 10
-105.798100757813
 20
35.5716843584615
 10
-105.798184074375
 20
35.5715996153846
 10
-105.798378479687
 20
35.5714018815385
 10
-105.798656201563
 20
35.5714018815385
 10
-105.798933923438
 20
35.5715778863905
 10
-105.798955286659
 20
35.5715996153846
 10
-105.799080092845
 20
35.5718820923077
 10
-105.79916263557
 20
35.5721645692308
 10
-105.799211645312
 20
35.5723764269231
 10
-105.799227981893
 20
35.5724470461538
 10
-105.79935781472
 20
35.5727295230769
 10
-105.799447708906
 20
35.573012
 10
-105.799489367188
 20
35.5730618488688
 10
-105.799767089062
 20
35.5732662292308
 10
-105.799806763616
 20
35.5732944769231
 10
-105.799980721274
 20
35.5735769538462
 10
-105.800044810938
 20
35.5736616969231
 10
-105.800322532813
 20
35.5736616969231
 10
-105.800371542555
 20
35.5735769538462
 10
-105.800405849375
 20
35.5732944769231
 10
-105.800322532813
 20
35.5730826192308
 10
-105.800301169591
 20
35.573012
 10
-105.800322532813
 20
35.5729902710059
 10
-105.800530824219
 20
35.5727295230769
 10
-105.800600254688
 20
35.5726426071006
 10
-105.800731807155
 20
35.5724470461538
 10
-105.800864090469
 20
35.5721645692308
 10
-105.800877976563
 20
35.5721242153846
 10
-105.800950425747
 20
35.5718820923077
 10
-105.801034195117
 20
35.5715996153846
 10
-105.801155698437
 20
35.571447512426
 10
-105.801393745759
 20
35.5713171384615
 10
-105.801393745759
 20
35.5711759
  0
LWPOLYLINE
  5
20035
100
AcDbEntity
  8
0
100
AcDbPolyline
 70
0
 90
53
 38
7260
 10
-105.79694086057
 20
35.5711759
 10
-105.79694086057
 20
35.5713171384615
 10
-105.796797601322
 20
35.5715996153846
 10
-105.796712148438
 20
35.5717126061538
 10
-105.796434426609
 20
35.5718820923077
 10
-105.796434426593
 20
35.5721645692308
 10
-105.796434426609
 20
35.5724470461538
 10
-105.796712148438
 20
35.5726165323077
 10
-105.796989870313
 20
35.5727295230298
 10
-105.796989870405
 20
35.5727295230769
 10
-105.797267592188
 20
35.5730119999058
 10
-105.797545314063
 20
35.5730119999529
 10
-105.797823035891
 20
35.5727295230769
 10
-105.797823035937
 20
35.5727295229828
 10
-105.7979063525
 20
35.5724470461538
 10
-105.798100757782
 20
35.5721645692308
 10
-105.798100757813
 20
35.5721645691366
 10
-105.798219781473
 20
35.5718820923077
 10
-105.798378479687
 20
35.5717206769231
 10
-105.798656201563
 20
35.5716843584615
 10
-105.798933923438
 20
35.5718820922763
 10
-105.798933923452
 20
35.5718820923077
 10
-105.798999269761
 20
35.5721645692308
 10
-105.799080092845
 20
35.5724470461538
 10
-105.799211645312
 20
35.5727295230455
 10
-105.799211645327
 20
35.5727295230769
 10
-105.799308847969
 20
35.573012
 10
-105.799489367188
 20
35.5732280117647
 10
-105.799574820072
 20
35.5732944769231
 10
-105.799767089062
 20
35.5735769538148
 10
-105.799767089084
 20
35.5735769538462
 10
-105.799961494375
 20
35.5738594307692
 10
-105.800044810938
 20
35.5739804923077
 10
-105.800322532813
 20
35.5739804923077
 10
-105.800386622476
 20
35.5738594307692
 10
-105.800534908364
 20
35.5735769538462
 10
-105.800600254688
 20
35.5734155384615
 10
-105.800877976563
 20
35.5733443257919
 10
-105.801155698437
 20
35.5733596639053
 10
-105.80143342022
 20
35.5732944769231
 10
-105.801239015
 20
35.573012
 10
-105.801155698437
 20
35.5729621511312
 10
-105.800877976563
 20
35.5728909384615
 10
-105.800766887813
 20
35.5727295230769
 10
-105.800877976548
 20
35.5724470461538
 10
-105.800877976563
 20
35.5724470461225
 10
-105.80098665034
 20
35.5721645692308
 10
-105.801071174389
 20
35.5718820923077
 10
-105.801155698437
 20
35.5716843584615
 10
-105.801274722098
 20
35.5715996153846
 10
-105.801433420313
 20
35.5715126994083
 10
-105.801625689303
 20
35.5713171384615
 10
-105.801625689303
 20
35.5711759
  0
LWPOLYLINE
  5
20036
100
AcDbEntity
  8
0
100
AcDbPolyline
 70
0
 90
70
 38
7270
 10
-105.796777494761
 20
35.5711759
 10
-105.796777494761
 20
35.5713171384615
 10
-105.796712148438
 20
35.5714301292308
 10
-105.796434426609
 20
35.5715996153846
 10
-105.796434426562
 20
35.5715996154129
 10
-105.796156704715
 20
35.5718820923077
 10
-105.796156704688
 20
35.5718820924019
 10
-105.796120480095
 20
35.5721645692308
 10
-105.796156704688
 20
35.5724470460597
 10
-105.796156704715
 20
35.5724470461538
 10
-105.796267793438
 20
35.5727295230769
 10
-105.796434426562
 20
35.5730119999529
 10
-105.796434426655
 20
35.573012
 10
-105.796434426562
 20
35.5730120000471
 10
-105.796267793438
 20
35.5732944769231
 10
-105.796253907344
 20
35.5735769538462
 10
-105.796306247236
 20
35.5738594307692
 10
-105.796434426562
 20
35.5741419076452
 10
-105.796712148438
 20
35.5740006692166
 10
-105.796989870285
 20
35.5738594307692
 10
-105.796989870313
 20
35.5738594307516
 10
-105.797267592188
 20
35.5736421408284
 10
-105.79735090875
 20
35.5735769538462
 10
-105.797545314035
 20
35.5732944769231
 10
-105.797545314063
 20
35.5732944768948
 10
-105.797708679871
 20
35.573012
 10
-105.797823035937
 20
35.5728956859729
 10
-105.797986401746
 20
35.5727295230769
 10
-105.798100757813
 20
35.5725317892308
 10
-105.798184074375
 20
35.5724470461538
 10
-105.798378479687
 20
35.5722493123077
 10
-105.798497503348
 20
35.5721645692308
 10
-105.798656201563
 20
35.5720031538462
 10
-105.798767290312
 20
35.5721645692308
 10
-105.798933923438
 20
35.5724470461068
 10
-105.798933923452
 20
35.5724470461538
 10
-105.799108785359
 20
35.5727295230769
 10
-105.79917542072
 20
35.573012
 10
-105.799211645312
 20
35.5730967430769
 10
-105.799361187861
 20
35.5732944769231
 10
-105.799489367188
 20
35.5734004057692
 10
-105.799628228139
 20
35.5735769538462
 10
-105.799725430781
 20
35.5738594307692
 10
-105.799715016211
 20
35.5741419076923
 10
-105.799767089062
 20
35.5742629692308
 10
-105.799925787277
 20
35.5744243846154
 10
-105.800044810938
 20
35.5745454461538
 10
-105.800163834598
 20
35.5744243846154
 10
-105.800322532813
 20
35.5743113938462
 10
-105.800489165938
 20
35.5741419076923
 10
-105.800600254666
 20
35.5738594307692
 10
-105.800600254688
 20
35.5738594307222
 10
-105.800766887813
 20
35.5735769538462
 10
-105.800877976563
 20
35.5735104886878
 10
-105.801155698437
 20
35.5735769538244
 10
-105.801433420313
 20
35.5734962461538
 10
-105.801596786121
 20
35.5732944769231
 10
-105.801485493164
 20
35.573012
 10
-105.801433420313
 20
35.5729272569231
 10
-105.801155698437
 20
35.5727959882353
 10
-105.801044609688
 20
35.5727295230769
 10
-105.801041342371
 20
35.5724470461538
 10
-105.801107398981
 20
35.5721645692308
 10
-105.801155698437
 20
35.5720031538462
 10
-105.801207771289
 20
35.5718820923077
 10
-105.801433420313
 20
35.5716888186235
 10
-105.801600053437
 20
35.5715996153846
 10
-105.801711142188
 20
35.5714866246154
 10
-105.801839321514
 20
35.5713171384615
 10
-105.801839321514
 20
35.5711759
  0
LWPOLYLINE
  5
20037
100
AcDbEntity
  8
0
100
AcDbPolyline
 70
0
 90
90
 38
7280
 10
-105.796434426609
 20
35.5711759
 10
-105.796434426609
 20
35.5713171384615
 10
-105.796434426562
 20
35.5713171384898
 10
-105.796156704715
 20
35.5715996153846
 10
-105.796156704688
 20
35.5715996154129
 10
-105.796017843764
 20
35.5718820923077
 10
-105.795999731454
 20
35.5721645692308
 10
-105.796017843764
 20
35.5724470461538
 10
-105.796069003043
 20
35.5727295230769
 10
-105.796156704688
 20
35.5730119999529
 10
-105.796156704715
 20
35.573012
 10
-105.796156704688
 20
35.5730120000471
 10
-105.796052558984
 20
35.5732944769231
 10
-105.796073388125
 20
35.5735769538462
 10
-105.796092615024
 20
35.5738594307692
 10
-105.796073388125
 20
35.5741419076923
 10
-105.796073388125
 20
35.5744243846154
 10
-105.796156704688
 20
35.5745656230298
 10
-105.79643442647
 20
35.5744243846154
 10
-105.796434426562
 20
35.5744243845871
 10
-105.79671214841
 20
35.5741419076923
 10
-105.796712148438
 20
35.5741419076782
 10
-105.796989870313
 20
35.5740767207101
 10
-105.79726759216
 20
35.5738594307692
 10
-105.797267592188
 20
35.5738594307475
 10
-105.797545314063
 20
35.5736616969231
 10
-105.797609403726
 20
35.5735769538462
 10
-105.797758946274
 20
35.5732944769231
 10
-105.797823035937
 20
35.5731532384145
 10
-105.797875108789
 20
35.573012
 10
-105.798100757813
 20
35.5727824875
 10
-105.798152830664
 20
35.5727295230769
 10
-105.798378479687
 20
35.5725000105769
 10
-105.79865620147
 20
35.5724470461538
 10
-105.798656201563
 20
35.5724470461068
 10
-105.79865620159
 20
35.5724470461538
 10
-105.798933923438
 20
35.5726132090498
 10
-105.799005925405
 20
35.5727295230769
 10
-105.799054672079
 20
35.573012
 10
-105.79917542072
 20
35.5732944769231
 10
-105.799211645312
 20
35.5733270704142
 10
-105.799489367188
 20
35.5735769538285
 10
-105.799489367201
 20
35.5735769538462
 10
-105.799586569844
 20
35.5738594307692
 10
-105.799541440039
 20
35.5741419076923
 10
-105.799638909736
 20
35.5744243846154
 10
-105.799702999399
 20
35.5747068615385
 10
-105.799489367188
 20
35.5749241514793
 10
-105.799453142595
 20
35.5749893384615
 10
-105.799255496135
 20
35.5752718153846
 10
-105.79921164534
 20
35.5755542923077
 10
-105.799211645312
 20
35.5755542924019
 10
-105.799179600481
 20
35.5758367692308
 10
-105.799211645312
 20
35.5761192460597
 10
-105.799211645359
 20
35.5761192461538
 10
-105.799489367188
 20
35.5763075641026
 10
-105.799767089062
 20
35.5762039892308
 10
-105.799803313655
 20
35.5761192461538
 10
-105.799767089062
 20
35.5758367693249
 10
-105.799767089035
 20
35.5758367692308
 10
-105.799767089062
 20
35.5758367691366
 10
-105.799808747344
 20
35.5755542923077
 10
-105.799930454871
 20
35.5752718153846
 10
-105.80004481092
 20
35.5749893384615
 10
-105.800044810938
 20
35.5749893384145
 10
-105.800148956641
 20
35.5747068615385
 10
-105.800322532813
 20
35.5745303134615
 10
-105.800507680729
 20
35.5744243846154
 10
-105.800600254688
 20
35.574330225641
 10
-105.800877976516
 20
35.5741419076923
 10
-105.800877976563
 20
35.5741419075981
 10
-105.801155698345
 20
35.5738594307692
 10
-105.801155698437
 20
35.573859430741
 10
-105.801433420313
 20
35.5737652717949
 10
-105.801537566016
 20
35.5735769538462
 10
-105.801711142188
 20
35.5733596639053
 10
-105.801752800469
 20
35.5732944769231
 10
-105.801711142188
 20
35.5731532385086
 10
-105.801659069336
 20
35.573012
 10
-105.801497509976
 20
35.5727295230769
 10
-105.801433420313
 20
35.5725882846625
 10
-105.801294559329
 20
35.5724470461538
 10
-105.801283877764
 20
35.5721645692308
 10
-105.801381347461
 20
35.5718820923077
 10
-105.801433420313
 20
35.5718374906883
 10
-105.801711142188
 20
35.5717299893491
 10
-105.801988864016
 20
35.5715996153846
 10
-105.801988864063
 20
35.5715996152905
 10
-105.802072180625
 20
35.5713171384615
 10
-105.802072180625
 20
35.5711759
  0
LWPOLYLINE
  5
20038
100
AcDbEntity
  8
0
100
AcDbPolyline
 70
0
 90
95
 38
7290
 10
-105.796073388125
 20
35.5711759
 10
-105.796073388125
 20
35.5713171384615
 10
-105.795943072476
 20
35.5715996153846
 10
-105.795878982826
 20
35.5718820923077
 10
-105.795878982825
 20
35.5721645692308
 10
-105.795878982826
 20
35.5724470461538
 10
-105.795922833635
 20
35.5727295230769
 10
-105.795943072476
 20
35.573012
 10
-105.79587898283
 20
35.5732944769231
 10
-105.795878982813
 20
35.5732944770172
 10
-105.795826909961
 20
35.5735769538462
 10
-105.795878982813
 20
35.5738594306751
 10
-105.795878982834
 20
35.5738594307692
 10
-105.795878982813
 20
35.5738594308634
 10
-105.795826909961
 20
35.5741419076923
 10
-105.795814893149
 20
35.5744243846154
 10
-105.795826909961
 20
35.5747068615385
 10
-105.795878982813
 20
35.5747916046154
 10
-105.796156704688
 20
35.5748480999798
 10
-105.796434426562
 20
35.5747916046154
 10
-105.796573287454
 20
35.5747068615385
 10
-105.796712148438
 20
35.5745656230298
 10
-105.796795465
 20
35.5744243846154
 10
-105.796989870313
 20
35.5742831461337
 10
-105.797267592148
 20
35.5741419076923
 10
-105.797267592188
 20
35.5741419076641
 10
-105.797545314063
 20
35.5739123951923
 10
-105.797597386914
 20
35.5738594307692
 10
-105.797823035916
 20
35.5735769538462
 10
-105.797823035937
 20
35.5735769538058
 10
-105.797961896855
 20
35.5732944769231
 10
-105.798048684961
 20
35.573012
 10
-105.798100757813
 20
35.5729590355769
 10
-105.798326406836
 20
35.5727295230769
 10
-105.798378479687
 20
35.5726765586538
 10
-105.798656201563
 20
35.5726132090498
 10
-105.798850606875
 20
35.5727295230769
 10
-105.798933923438
 20
35.5730119999058
 10
-105.79893392345
 20
35.573012
 10
-105.799054672079
 20
35.5732944769231
 10
-105.799211645312
 20
35.5734357153737
 10
-105.799368618546
 20
35.5735769538462
 10
-105.799453142595
 20
35.5738594307692
 10
-105.799404843139
 20
35.5741419076923
 10
-105.799453142595
 20
35.5744243846154
 10
-105.799489367188
 20
35.5747068614443
 10
-105.799489367209
 20
35.5747068615385
 10
-105.799489367188
 20
35.5747068615602
 10
-105.799332393954
 20
35.5749893384615
 10
-105.799211645312
 20
35.5751555013575
 10
-105.799152734612
 20
35.5752718153846
 10
-105.799134500347
 20
35.5755542923077
 10
-105.799072784386
 20
35.5758367692308
 10
-105.799104829207
 20
35.5761192461538
 10
-105.799211645312
 20
35.5764017230487
 10
-105.799211645352
 20
35.5764017230769
 10
-105.79921164534
 20
35.5766842
 10
-105.799489367188
 20
35.5768503628959
 10
-105.799652732996
 20
35.5766842
 10
-105.799767089062
 20
35.5764864661538
 10
-105.799819161914
 20
35.5764017230769
 10
-105.799924062296
 20
35.5761192461538
 10
-105.799905949986
 20
35.5758367692308
 10
-105.799947608281
 20
35.5755542923077
 10
-105.800044810938
 20
35.5753565584615
 10
-105.800096883789
 20
35.5752718153846
 10
-105.800208176746
 20
35.5749893384615
 10
-105.800322532795
 20
35.5747068615385
 10
-105.800322532813
 20
35.5747068615208
 10
-105.800600254688
 20
35.5746221184615
 10
-105.800877976523
 20
35.5744243846154
 10
-105.800877976563
 20
35.5744243845871
 10
-105.801155698437
 20
35.574424384575
 10
-105.801433420313
 20
35.5742831461068
 10
-105.801477271135
 20
35.5741419076923
 10
-105.801547776379
 20
35.5738594307692
 10
-105.80171114217
 20
35.5735769538462
 10
-105.801711142188
 20
35.5735769538244
 10
-105.801891661406
 20
35.5732944769231
 10
-105.801795666236
 20
35.573012
 10
-105.801711142188
 20
35.5727295231173
 10
-105.801711142166
 20
35.5727295230769
 10
-105.801627825625
 20
35.5724470461538
 10
-105.801572281204
 20
35.5721645692308
 10
-105.801711142188
 20
35.5720233307222
 10
-105.801850003079
 20
35.5718820923077
 10
-105.801988864063
 20
35.5718169053254
 10
-105.802266585938
 20
35.5717973492308
 10
-105.802405446921
 20
35.5718820923077
 10
-105.802544307812
 20
35.5719350567308
 10
-105.802683168704
 20
35.5718820923077
 10
-105.802822029595
 20
35.5715996153846
 10
-105.802544307812
 20
35.5713171385557
 10
-105.80254430772
 20
35.5713171384615
 10
-105.80254430772
 20
35.5711759
  0
LWPOLYLINE
  5
20039
100
AcDbEntity
  8
0
100
AcDbPolyline
 70
0
 90
91
 38
7300
 10
-105.795814893149
 20
35.5711759
 10
-105.795814893149
 20
35.5713171384615
 10
-105.795781780156
 20
35.5715996153846
 10
-105.795772166707
 20
35.5718820923077
 10
-105.795772166707
 20
35.5721645692308
 10
-105.795758234171
 20
35.5724470461538
 10
-105.795764626746
 20
35.5727295230769
 10
-105.795764626746
 20
35.573012
 10
-105.795705406641
 20
35.5732944769231
 10
-105.795653333789
 20
35.5735769538462
 10
-105.795665350601
 20
35.5738594307692
 10
-105.795653333789
 20
35.5741419076923
 10
-105.795601260959
 20
35.5744243846154
 10
-105.795653333789
 20
35.5747068615385
 10
-105.795740121921
 20
35.5749893384615
 10
-105.795878982813
 20
35.5752718152905
 10
-105.796156704688
 20
35.575130576876
 10
-105.796434426562
 20
35.575130576876
 10
-105.796573287454
 20
35.5749893384615
 10
-105.796712148438
 20
35.5749045953846
 10
-105.79690655375
 20
35.5747068615385
 10
-105.796989870313
 20
35.5745656230298
 10
-105.797128731204
 20
35.5744243846154
 10
-105.797267592188
 20
35.5743591976331
 10
-105.797481224399
 20
35.5741419076923
 10
-105.797545314063
 20
35.5740889432692
 10
-105.797770963086
 20
35.5738594307692
 10
-105.797823035937
 20
35.573794243787
 10
-105.797996612109
 20
35.5735769538462
 10
-105.798100757813
 20
35.5733886358974
 10
-105.798152830664
 20
35.5732944769231
 10
-105.798250300361
 20
35.573012
 10
-105.798378479687
 20
35.5728816260355
 10
-105.798656201563
 20
35.5727741246964
 10
-105.798827107332
 20
35.573012
 10
-105.798933923438
 20
35.5732944768948
 10
-105.79893392345
 20
35.5732944769231
 10
-105.799211645312
 20
35.573544360355
 10
-105.799247869905
 20
35.5735769538462
 10
-105.799332393954
 20
35.5738594307692
 10
-105.799284094497
 20
35.5741419076923
 10
-105.799332393954
 20
35.5744243846154
 10
-105.799368618546
 20
35.5747068615385
 10
-105.799211645325
 20
35.5749893384615
 10
-105.799211645312
 20
35.5749893384782
 10
-105.799068576468
 20
35.5752718153846
 10
-105.799057355382
 20
35.5755542923077
 10
-105.798965968269
 20
35.5758367692308
 10
-105.798998013101
 20
35.5761192461538
 10
-105.799038069141
 20
35.5764017230769
 10
-105.799072784389
 20
35.5766842
 10
-105.799127121264
 20
35.5769666769231
 10
-105.799211645312
 20
35.5771644107692
 10
-105.799489367188
 20
35.5771079153375
 10
-105.799581941146
 20
35.5769666769231
 10
-105.799767089062
 20
35.5767783589744
 10
-105.799819161914
 20
35.5766842
 10
-105.799992738086
 20
35.5764017230769
 10
-105.800044810925
 20
35.5761192461538
 10
-105.800044810924
 20
35.5758367692308
 10
-105.800044810938
 20
35.5758367691366
 10
-105.800108900601
 20
35.5755542923077
 10
-105.800270459961
 20
35.5752718153846
 10
-105.800322532813
 20
35.575130576876
 10
-105.800600254688
 20
35.575130576876
 10
-105.800877976563
 20
35.5752718153443
 10
-105.801155698437
 20
35.5750545254438
 10
-105.80119954926
 20
35.5749893384615
 10
-105.801369330649
 20
35.5747068615385
 10
-105.801433420313
 20
35.5746221184615
 10
-105.80150542228
 20
35.5744243846154
 10
-105.801623440543
 20
35.5741419076923
 10
-105.801711142171
 20
35.5738594307692
 10
-105.801711142188
 20
35.573859430741
 10
-105.801831890829
 20
35.5735769538462
 10
-105.801988864063
 20
35.5733474413462
 10
-105.802032714885
 20
35.5732944769231
 10
-105.801988864063
 20
35.5732003179487
 10
-105.801916414878
 20
35.573012
 10
-105.801831890829
 20
35.5727295230769
 10
-105.801825498254
 20
35.5724470461538
 10
-105.8019055475
 20
35.5721645692308
 10
-105.801988864063
 20
35.5720798261538
 10
-105.802266585938
 20
35.5720798261538
 10
-105.802544307812
 20
35.5721116048077
 10
-105.802822029688
 20
35.5720341952663
 10
-105.803016435
 20
35.5718820923077
 10
-105.803099751535
 20
35.5715996153846
 10
-105.803099751562
 20
35.5715996152905
 10
-105.803163841226
 20
35.5713171384615
 10
-105.803163841226
 20
35.5711759
  0
LWPOLYLINE
  5
2003A
100
AcDbEntity
  8
0
100
AcDbPolyline
 70
0
 90
93
 38
7310
 10
-105.7954624
 20
35.5754332307692
 10
-105.795601260938
 20
35.5754332307692
 10
-105.795878982813
 20
35.5755542922794
 10
-105.795878982882
 20
35.5755542923077
 10
-105.796156704688
 20
35.5758367691601
 10
-105.796434426493
 20
35.5755542923077
 10
-105.796434426562
 20
35.5755542922673
 10
-105.796712148398
 20
35.5752718153846
 10
-105.796712148438
 20
35.5752718153443
 10
-105.796989870273
 20
35.5749893384615
 10
-105.796989870313
 20
35.5749893384212
 10
-105.797267592148
 20
35.5747068615385
 10
-105.797267592188
 20
35.5747068614981
 10
-105.797545314023
 20
35.5744243846154
 10
-105.797545314063
 20
35.574424384575
 10
-105.797694856611
 20
35.5741419076923
 10
-105.797823035937
 20
35.5740115337278
 10
-105.797937392004
 20
35.5738594307692
 10
-105.798100757813
 20
35.5736576615385
 10
-105.79818010692
 20
35.5735769538462
 10
-105.798326406836
 20
35.5732944769231
 10
-105.798378479687
 20
35.5731734153846
 10
-105.798489568438
 20
35.573012
 10
-105.798656201563
 20
35.5729227967611
 10
-105.798720291226
 20
35.573012
 10
-105.798760347266
 20
35.5732944769231
 10
-105.798933923438
 20
35.5734357153705
 10
-105.799097289246
 20
35.5735769538462
 10
-105.799211645312
 20
35.5738594307289
 10
-105.799211645325
 20
35.5738594307692
 10
-105.799211645312
 20
35.5738594308399
 10
-105.799181621326
 20
35.5741419076923
 10
-105.799211645312
 20
35.5744243845448
 10
-105.799211645325
 20
35.5744243846154
 10
-105.799247869905
 20
35.5747068615385
 10
-105.799211645312
 20
35.5747720485207
 10
-105.799104829207
 20
35.5749893384615
 10
-105.798984418324
 20
35.5752718153846
 10
-105.798980210417
 20
35.5755542923077
 10
-105.798933923438
 20
35.5756846662722
 10
-105.798879921962
 20
35.5758367692308
 10
-105.798896893854
 20
35.5761192461538
 10
-105.79890026018
 20
35.5764017230769
 10
-105.798933923438
 20
35.5766841999294
 10
-105.798933923451
 20
35.5766842
 10
-105.799006372622
 20
35.5769666769231
 10
-105.799062102764
 20
35.5772491538462
 10
-105.799072784389
 20
35.5775316307692
 10
-105.798985996289
 20
35.5778141076923
 10
-105.798933923465
 20
35.5780965846154
 10
-105.799211645312
 20
35.5783790615102
 10
-105.799489367188
 20
35.5781630497738
 10
-105.799537666644
 20
35.5780965846154
 10
-105.799586569844
 20
35.5778141076923
 10
-105.799568716295
 20
35.5775316307692
 10
-105.7996837725
 20
35.5772491538462
 10
-105.799767089062
 20
35.5771280923077
 10
-105.799878177813
 20
35.5769666769231
 10
-105.799992738086
 20
35.5766842
 10
-105.800044810938
 20
35.5765994569231
 10
-105.800129334986
 20
35.5764017230769
 10
-105.800165559579
 20
35.5761192461538
 10
-105.800183671861
 20
35.5758367692308
 10
-105.800322532791
 20
35.5755542923077
 10
-105.800322532813
 20
35.5755542922673
 10
-105.800600254688
 20
35.5755542922673
 10
-105.800877976563
 20
35.5754891053254
 10
-105.80115569841
 20
35.5752718153846
 10
-105.801155698437
 20
35.5752718153629
 10
-105.801345718668
 20
35.5749893384615
 10
-105.801433420313
 20
35.574858964497
 10
-105.801508191587
 20
35.5747068615385
 10
-105.801608282234
 20
35.5744243846154
 10
-105.801711142188
 20
35.5742226153846
 10
-105.801752286169
 20
35.5741419076923
 10
-105.801831890829
 20
35.5738594307692
 10
-105.80195263947
 20
35.5735769538462
 10
-105.801988864063
 20
35.5735239894231
 10
-105.802178884293
 20
35.5732944769231
 10
-105.802054210386
 20
35.573012
 10
-105.801988864063
 20
35.5728505846154
 10
-105.80195263947
 20
35.5727295230769
 10
-105.801988864046
 20
35.5724470461538
 10
-105.801988864063
 20
35.5724470461135
 10
-105.802266585938
 20
35.5722634361538
 10
-105.802544307812
 20
35.5722634361538
 10
-105.802822029688
 20
35.5722136956522
 10
-105.802901378795
 20
35.5721645692308
 10
-105.803099751562
 20
35.5719984063348
 10
-105.803249294111
 20
35.5718820923077
 10
-105.80337747341
 20
35.5715996153846
 10
-105.803377473416
 20
35.5713171384615
 10
-105.803377473416
 20
35.5711759
  0
LWPOLYLINE
  5
2003B
100
AcDbEntity
  8
0
100
AcDbPolyline
 70
0
 90
10
 38
7310
 10
-105.795601260959
 20
35.5711759
 10
-105.795601260959
 20
35.5713171384615
 10
-105.795642919219
 20
35.5715996153846
 10
-105.795665350601
 20
35.5718820923077
 10
-105.795665350601
 20
35.5721645692308
 10
-105.79563748553
 20
35.5724470461538
 10
-105.795601260954
 20
35.5727295230769
 10
-105.795601260954
 20
35.573012
 10
-105.795601260938
 20
35.5730120000706
 10
-105.7954624
 20
35.5730120000706
  0
LWPOLYLINE
  5
2003C
100
AcDbEntity
  8
0
100
AcDbPolyline
 70
0
 90
47
 38
7320
 10
-105.799425277524
 20
35.5785203
 10
-105.799425277524
 20
35.5783790615385
 10
-105.799489367188
 20
35.5783292126697
 10
-105.799658415285
 20
35.5780965846154
 10
-105.799725430781
 20
35.5778141076923
 10
-105.799767089043
 20
35.5775316307692
 10
-105.799767089062
 20
35.5775316307289
 10
-105.799916631611
 20
35.5772491538462
 10
-105.800044810938
 20
35.5770796676923
 10
-105.800130263822
 20
35.5769666769231
 10
-105.800166314258
 20
35.5766842
 10
-105.800250083628
 20
35.5764017230769
 10
-105.80028630822
 20
35.5761192461538
 10
-105.800322532799
 20
35.5758367692308
 10
-105.800322532813
 20
35.5758367692025
 10
-105.800600254688
 20
35.5757308403846
 10
-105.800877976563
 20
35.5756778759615
 10
-105.801155698398
 20
35.5755542923077
 10
-105.801155698437
 20
35.5755542922794
 10
-105.801329274609
 20
35.5752718153846
 10
-105.801433420313
 20
35.5751023292308
 10
-105.801474564294
 20
35.5749893384615
 10
-105.801615007692
 20
35.5747068615385
 10
-105.801711142177
 20
35.5744243846154
 10
-105.801711142188
 20
35.5744243845952
 10
-105.801855146123
 20
35.5741419076923
 10
-105.80195263947
 20
35.5738594307692
 10
-105.801988864063
 20
35.5737746876923
 10
-105.802110367383
 20
35.5735769538462
 10
-105.802266585938
 20
35.5733813928994
 10
-105.802331932261
 20
35.5732944769231
 10
-105.802266585938
 20
35.5731330615385
 10
-105.802217576195
 20
35.573012
 10
-105.802110367383
 20
35.5727295230769
 10
-105.802202496274
 20
35.5724470461538
 10
-105.802266585938
 20
35.5724046746154
 10
-105.802544307812
 20
35.5724046746154
 10
-105.802822029688
 20
35.5723365117057
 10
-105.803099751543
 20
35.5721645692308
 10
-105.803099751562
 20
35.5721645692142
 10
-105.803377473438
 20
35.5719485574661
 10
-105.803488562187
 20
35.5718820923077
 10
-105.803655195313
 20
35.5717126061538
 10
-105.803740648197
 20
35.5715996153846
 10
-105.803655195313
 20
35.5713171385322
 10
-105.803655195285
 20
35.5713171384615
 10
-105.803655195285
 20
35.5711759
  0
LWPOLYLINE
  5
2003D
100
AcDbEntity
  8
0
100
AcDbPolyline
 70
0
 90
44
 38
7330
 10
-105.799573891236
 20
35.5785203
 10
-105.799573891236
 20
35.5783790615385
 10
-105.799767089062
 20
35.578113200905
 10
-105.799779163927
 20
35.5780965846154
 10
-105.799864291719
 20
35.5778141076923
 10
-105.799940665234
 20
35.5775316307692
 10
-105.800044810938
 20
35.5773621446154
 10
-105.800155899687
 20
35.5772491538462
 10
-105.800322532813
 20
35.5770070307692
 10
-105.800338869393
 20
35.5769666769231
 10
-105.800338869393
 20
35.5766842
 10
-105.800387879136
 20
35.5764017230769
 10
-105.800472075361
 20
35.5761192461538
 10
-105.800600254688
 20
35.57594976
 10
-105.800877976563
 20
35.5758569461538
 10
-105.80090574875
 20
35.5758367692308
 10
-105.801155698437
 20
35.5757029643725
 10
-105.801276447079
 20
35.5755542923077
 10
-105.801433420313
 20
35.575338280543
 10
-105.801476146755
 20
35.5752718153846
 10
-105.801577424248
 20
35.5749893384615
 10
-105.801711142188
 20
35.5747270384615
 10
-105.801721428183
 20
35.5747068615385
 10
-105.801831890829
 20
35.5744243846154
 10
-105.801958006076
 20
35.5741419076923
 10
-105.801988864063
 20
35.5740571646154
 10
-105.802073388111
 20
35.5738594307692
 10
-105.802266585938
 20
35.5735935701357
 10
-105.802286423214
 20
35.5735769538462
 10
-105.80249529807
 20
35.5732944769231
 10
-105.80246099125
 20
35.573012
 10
-105.802336016406
 20
35.5727295230769
 10
-105.802544307812
 20
35.57264478
 10
-105.802822029688
 20
35.5724752938462
 10
-105.802849801875
 20
35.5724470461538
 10
-105.803099751562
 20
35.5723132412955
 10
-105.803313383774
 20
35.5721645692308
 10
-105.803377473438
 20
35.572114720362
 10
-105.803655195313
 20
35.5719485574661
 10
-105.803720541636
 20
35.5718820923077
 10
-105.803932917187
 20
35.5716197923077
 10
-105.803944992052
 20
35.5715996153846
 10
-105.803952754464
 20
35.5713171384615
 10
-105.803952754464
 20
35.5711759
  0
LWPOLYLINE
  5
2003E
100
AcDbEntity
  8
0
100
AcDbPolyline
 70
0
 90
44
 38
7340
 10
-105.799694639878
 20
35.5785203
 10
-105.799694639878
 20
35.5783790615385
 10
-105.799767089062
 20
35.5782793638009
 10
-105.799899912568
 20
35.5780965846154
 10
-105.800003152656
 20
35.5778141076923
 10
-105.800044810938
 20
35.5776930461538
 10
-105.800130263822
 20
35.5775316307692
 10
-105.800322532813
 20
35.5773360698225
 10
-105.800407985697
 20
35.5772491538462
 10
-105.800502235202
 20
35.5769666769231
 10
-105.800502235202
 20
35.5766842
 10
-105.800551244945
 20
35.5764017230769
 10
-105.800600254688
 20
35.5762806615385
 10
-105.800758952902
 20
35.5761192461538
 10
-105.800877976563
 20
35.5760587153846
 10
-105.801155698437
 20
35.5758490508361
 10
-105.801166380048
 20
35.5758367692308
 10
-105.80139719572
 20
35.5755542923077
 10
-105.801433420313
 20
35.5755044434389
 10
-105.801582962861
 20
35.5752718153846
 10
-105.801680284201
 20
35.5749893384615
 10
-105.801711142188
 20
35.5749288076923
 10
-105.801824288137
 20
35.5747068615385
 10
-105.80195263947
 20
35.5744243846154
 10
-105.801988864063
 20
35.5743396415385
 10
-105.802110367383
 20
35.5741419076923
 10
-105.802194136753
 20
35.5738594307692
 10
-105.802266585938
 20
35.5737597330317
 10
-105.802484795982
 20
35.5735769538462
 10
-105.802544307812
 20
35.5734922107692
 10
-105.802665811133
 20
35.5732944769231
 10
-105.802693850361
 20
35.573012
 10
-105.802822029688
 20
35.5727698769231
 10
-105.802849801875
 20
35.5727295230769
 10
-105.803099751562
 20
35.5724752938462
 10
-105.80312752375
 20
35.5724470461538
 10
-105.803377473438
 20
35.5722881528846
 10
-105.80357187875
 20
35.5721645692308
 10
-105.803655195313
 20
35.572114720362
 10
-105.803883907445
 20
35.5718820923077
 10
-105.803932917187
 20
35.5718215615385
 10
-105.804065740693
 20
35.5715996153846
 10
-105.804151127232
 20
35.5713171384615
 10
-105.804151127232
 20
35.5711759
  0
ENDSEC
  0
SECTION
  2
OBJECTS
  0
DICTIONARY
  5
C
330
0
100
AcDbDictionary
281
     1
  3
ACAD_GROUP
350
D
  3
ACAD_LAYOUT
350
1A
  3
ACAD_MLEADERSTYLE
350
43
  3
ACAD_PLOTSETTINGS
350
19
  3
ACAD_PLOTSTYLENAME
350
E
  3
ACAD_TABLESTYLE
350
42
  0
DICTIONARY
  5
D
102
{ACAD_REACTORS
330
C
102
}
330
C
100
AcDbDictionary
281
     1
  0
DICTIONARY
  5
1A
102
{ACAD_REACTORS
330
C
102
}
330
C
100
AcDbDictionary
281
     1
  3
Layout1
350
1E
  3
Model
350
22
  0
DICTIONARY
  5
43
102
{ACAD_REACTORS
330
C
102
}
330
C
100
AcDbDictionary
281
     1
  0
DICTIONARY
  5
19
102
{ACAD_REACTORS
330
C
102
}
330
C
100
AcDbDictionary
281
     1
  0
ACDBDICTIONARYWDFLT
  5
E
102
{ACAD_REACTORS
330
C
102
}
330
C
100
AcDbDictionary
281
     1
  3
Normal
350
F
100
AcDbDictionaryWithDefault
340
F
  0
DICTIONARY
  5
42
102
{ACAD_REACTORS
330
C
102
}
330
C
100
AcDbDictionary
281
     1
  0
LAYOUT
  5
1E
102
{ACAD_REACTORS
330
1A
102
}
330
1A
100
AcDbPlotSettings
  1

  2
none_device
  4

  6

 40
0.0
 41
0.0
 42
0.0
 43
0.0
 44
0.0
 45
0.0
 46
0.0
 47
0.0
 48
0.0
 49
0.0
140
0.0
141
0.0
142
1.0
143
1.0
 70
   688
 72
     0
 73
     0
 74
     5
  7

 75
    16
 76
     0
 77
     2
 78
   300
147
1.0
148
0.0
149
0.0
100
AcDbLayout
  1
Layout1
 70
     1
 71
     1
 10
0.0
 20
0.0
 11
12.0
 21
9.0
 12
0.0
 22
0.0
 32
0.0
 14
1.000000000000000E+20
 24
1.000000000000000E+20
 34
1.000000000000000E+20
 15
-1.000000000000000E+20
 25
-1.000000000000000E+20
 35
-1.000000000000000E+20
146
0.0
 13
0.0
 23
0.0
 33
0.0
 16
1.0
 26
0.0
 36
0.0
 17
0.0
 27
1.0
 37
0.0
 76
     0
330
1B
  0
LAYOUT
  5
22
102
{ACAD_REACTORS
330
1A
102
}
330
1A
100
AcDbPlotSettings
  1

  2
none_device
  4

  6

 40
0.0
 41
0.0
 42
0.0
 43
0.0
 44
0.0
 45
0.0
 46
0.0
 47
0.0
 48
0.0
 49
0.0
140
0.0
141
0.0
142
1.0
143
1.0
 70
  1712
 72
     0
 73
     0
 74
     0
  7

 75
     0
 76
     0
 77
     2
 78
   300
147
1.0
148
0.0
149
0.0
100
AcDbLayout
  1
Model
 70
     1
 71
     0
 10
0.0
 20
0.0
 11
12.0
 21
9.0
 12
0.0
 22
0.0
 32
0.0
 14
30.0
 24
49.75
 34
0.0
 15
130.5
 25
163.1318914119703
 35
0.0
146
0.0
 13
0.0
 23
0.0
 33
0.0
 16
1.0
 26
0.0
 36
0.0
 17
0.0
 27
1.0
 37
0.0
 76
     0
330
1F
331
29
  0
ACDBPLACEHOLDER
  5
F
102
{ACAD_REACTORS
330
E
102
}
330
E
  0
ENDSEC
  0
EOF
