  0
SECTION
  2
HEADER
  9
$ACADVER
  1
AC1018
  9
$ACADMAINTVER
 70
     0
  9
$DWGCODEPAGE
  3
ANSI_1252
  9
$EXTMIN
 10
-105.8043495
 20
35.5711759
 30
0.0
  9
$EXTMAX
 10
-105.795601260959
 20
35.5785203
 30
0.0
  9
$LIMMIN
 10
0.0
 20
0.0
  9
$LIMMAX
 10
12.0
 20
9.0
  9
$ORTHOMODE
 70
     0
  9
$REGENMODE
 70
     1
  9
$FILLMODE
 70
     1
  9
$QTEXTMODE
 70
     0
  9
$MIRRTEXT
 70
     1
  9
$LTSCALE
 40
1.0
  9
$ATTMODE
 70
     1
  9
$TEXTSIZE
 40
0.2
  9
$TRACEWID
 40
0.05
  9
$TEXTSTYLE
  7
Standard
  9
$CLAYER
  8
0
  9
$CELTYPE
  6
ByLayer
  9
$CECOLOR
 62
   256
  9
$CELTSCALE
 40
1.0
  9
$DISPSILH
 70
     0
  9
$LUNITS
 70
     2
  9
$LUPREC
 70
     4
  9
$SKETCHINC
 40
0.1
  9
$FILLETRAD
 40
0.5
  9
$AUNITS
 70
     0
  9
$AUPREC
 70
     0
  9
$MENU
  1
.
  9
$ELEVATION
 40
0.0
  9
$PELEVATION
 40
0.0
  9
$THICKNESS
 40
0.0
  9
$LIMCHECK
 70
     0
  9
$CHAMFERA
 40
0.5
  9
$CHAMFERB
 40
0.5
  9
$CHAMFERC
 40
1.0
  9
$CHAMFERD
 40
0.0
  9
$SKPOLY
 70
     0
  9
$ANGBASE
 50
0.0
  9
$ANGDIR
 70
     0
  9
$PDMODE
 70
     0
  9
$PDSIZE
 40
0.0
  9
$PLINEWID
 40
0.0
  9
$SPLFRAME
 70
     0
  9
$SPLINETYPE
 70
     6
  9
$SPLINESEGS
 70
     8
  9
$HANDSEED
  5
00020006
  9
$SURFTAB1
 70
     6
  9
$SURFTAB2
 70
     6
  9
$SURFTYPE
 70
     6
  9
$SURFU
 70
     6
  9
$SURFV
 70
     6
  9
$UCSBASE
  2

  9
$UCSNAME
  2

  9
$UCSORG
 10
0.0
 20
0.0
 30
0.0
  9
$UCSXDIR
 10
1.0
 20
0.0
 30
0.0
  9
$UCSYDIR
 10
0.0
 20
1.0
 30
0.0
  9
$UCSORTHOREF
  2

  9
$UCSORTHOVIEW
 70
     0
  9
$UCSORGTOP
 10
0.0
 20
0.0
 30
0.0
  9
$UCSORGBOTTOM
 10
0.0
 20
0.0
 30
0.0
  9
$UCSORGLEFT
 10
0.0
 20
0.0
 30
0.0
  9
$UCSORGRIGHT
 10
0.0
 20
0.0
 30
0.0
  9
$UCSORGFRONT
 10
0.0
 20
0.0
 30
0.0
  9
$UCSORGBACK
 10
0.0
 20
0.0
 30
0.0
  9
$PUCSBASE
  2

  9
$PUCSNAME
  2

  9
$PUCSORG
 10
0.0
 20
0.0
 30
0.0
  9
$PUCSXDIR
 10
1.0
 20
0.0
 30
0.0
  9
$PUCSYDIR
 10
0.0
 20
1.0
 30
0.0
  9
$PUCSORTHOREF
  2

  9
$PUCSORTHOVIEW
 70
     0
  9
$PUCSORGTOP
 10
0.0
 20
0.0
 30
0.0
  9
$PUCSORGBOTTOM
 10
0.0
 20
0.0
 30
0.0
  9
$PUCSORGLEFT
 10
0.0
 20
0.0
 30
0.0
  9
$PUCSORGRIGHT
 10
0.0
 20
0.0
 30
0.0
  9
$PUCSORGFRONT
 10
0.0
 20
0.0
 30
0.0
  9
$PUCSORGBACK
 10
0.0
 20
0.0
 30
0.0
  9
$WORLDVIEW
 70
     1
  9
$SHADEDGE
 70
     3
  9
$SHADEDIF
 70
    70
  9
$TILEMODE
 70
     1
  9
$MAXACTVP
 70
    64
  9
$PINSBASE
 10
0.0
 20
0.0
 30
0.0
  9
$PLIMCHECK
 70
     0
  9
$PEXTMIN
 10
1.000000000000000E+20
 20
1.000000000000000E+20
 30
1.000000000000000E+20
  9
$PEXTMAX
 10
-1.000000000000000E+20
 20
-1.000000000000000E+20
 30
-1.000000000000000E+20
  9
$PLIMMIN
 10
0.0
 20
0.0
  9
$PLIMMAX
 10
12.0
 20
9.0
  9
$UNITMODE
 70
     0
  9
$VISRETAIN
 70
     1
  9
$PLINEGEN
 70
     0
  9
$PSLTSCALE
 70
     1
  9
$TREEDEPTH
 70
  3020
  9
$CMLSTYLE
  2
Standard
  9
$CMLJUST
 70
     0
  9
$CMLSCALE
 40
1.0
  9
$PROXYGRAPHICS
 70
     1
  9
$MEASUREMENT
 70
     0
  9
$CELWEIGHT
370
    -1
  9
$ENDCAPS
280
     0
  9
$JOINSTYLE
280
     0
  9
$LWDISPLAY
290
     0
  9
$INSUNITS
 70
     1
  9
$HYPERLINKBASE
  1

  9
$STYLESHEET
  1

  9
$XEDIT
290
     1
  9
$CEPSNTYPE
380
     0
  9
$PSTYLEMODE
290
     1
  9
$EXTNAMES
290
     1
  9
$PSVPSCALE
 40
0.0
  9
$OLESTARTUP
290
     0
  9
$SORTENTS
280
   127
  9
$INDEXCTL
280
     0
  9
$HIDETEXT
280
     1
  9
$XCLIPFRAME
290
     0
  9
$HALOGAP
280
     0
  9
$OBSCOLOR
 70
   257
  9
$OBSLTYPE
280
     0
  9
$INTERSECTIONDISPLAY
280
     0
  9
$INTERSECTIONCOLOR
 70
   257
  9
$DIMASSOC
280
     2
  9
$PROJECTNAME
  1

  0
ENDSEC
  0
SECTION
  2
CLASSES
  0
CLASS
  1
ACDBDICTIONARYWDFLT
  2
AcDbDictionaryWithDefault
  3
ObjectDBX Classes
 90
        0
 91
        4
280
     0
281
     0
  0
ENDSEC
  0
SECTION
  2
TABLES
  0
TABLE
  2
VPORT
  5
8
330
0
100
AcDbSymbolTable
 70
     1
  0
VPORT
  5
29
330
8
100
AcDbSymbolTableRecord
100
AcDbViewportTableRecord
  2
*Active
 70
     0
 10
0.0
 20
0.0
 11
1.0
 21
1.0
 12
80.25
 22
106.4409457059851
 13
0.0
 23
0.0
 14
0.5
 24
0.5
 15
0.5
 25
0.5
 16
0.0
 26
0.0
 36
1.0
 17
0.0
 27
0.0
 37
0.0
 40
113.3818914119703
 41
0.8863849310366128
 42
50.0
 43
0.0
 44
0.0
 50
0.0
 51
0.0
 71
     0
 72
  1000
 73
     1
 74
     3
 75
     0
 76
     0
 77
     0
 78
     0
281
     0
 65
     1
110
0.0
120
0.0
130
0.0
111
1.0
121
0.0
131
0.0
112
0.0
122
1.0
132
0.0
 79
     0
146
0.0
  0
ENDTAB
  0
TABLE
  2
LTYPE
  5
5
330
0
100
AcDbSymbolTable
 70
     1
  0
LTYPE
  5
14
330
5
100
AcDbSymbolTableRecord
100
AcDbLinetypeTableRecord
  2
ByBlock
 70
     0
  3

 72
    65
 73
     0
 40
0.0
  0
LTYPE
  5
15
330
5
100
AcDbSymbolTableRecord
100
AcDbLinetypeTableRecord
  2
ByLayer
 70
     0
  3

 72
    65
 73
     0
 40
0.0
  0
LTYPE
  5
16
330
5
100
AcDbSymbolTableRecord
100
AcDbLinetypeTableRecord
  2
Continuous
 70
     0
  3
Solid line
 72
    65
 73
     0
 40
0.0
  0
ENDTAB
  0
TABLE
  2
LAYER
  5
2
330
0
100
AcDbSymbolTable
 70
     1
  0
LAYER
  5
10
330
2
100
AcDbSymbolTableRecord
100
AcDbLayerTableRecord
  2
0
 70
     0
 62
     7
  6
Continuous
370
    -3
390
F
  0
ENDTAB
  0
TABLE
  2
STYLE
  5
3
330
0
100
AcDbSymbolTable
 70
     1
  0
STYLE
  5
11
330
3
100
AcDbSymbolTableRecord
100
AcDbTextStyleTableRecord
  2
Standard
 70
     0
 40
0.0
 41
1.0
 50
0.0
 71
     0
 42
0.2
  3
txt
  4

  0
ENDTAB
  0
TABLE
  2
VIEW
  5
6
330
0
100
AcDbSymbolTable
 70
     0
  0
ENDTAB
  0
TABLE
  2
UCS
  5
7
330
0
100
AcDbSymbolTable
 70
     0
  0
ENDTAB
  0
TABLE
  2
APPID
  5
9
330
0
100
AcDbSymbolTable
 70
     1
  0
APPID
  5
12
330
9
100
AcDbSymbolTableRecord
100
AcDbRegAppTableRecord
  2
ACAD
 70
     0
  0
ENDTAB
  0
TABLE
  2
DIMSTYLE
  5
A
330
0
100
AcDbSymbolTable
 70
     1
100
AcDbDimStyleTable
  0
DIMSTYLE
105
27
330
A
100
AcDbSymbolTableRecord
100
AcDbDimStyleTableRecord
  2
Standard
 70
     0
340
11
  0
ENDTAB
  0
TABLE
  2
BLOCK_RECORD
  5
1
330
0
100
AcDbSymbolTable
 70
     1
  0
BLOCK_RECORD
  5
1F
330
1
100
AcDbSymbolTableRecord
100
AcDbBlockTableRecord
  2
*Model_Space
340
22
  0
BLOCK_RECORD
  5
1B
330
1
100
AcDbSymbolTableRecord
100
AcDbBlockTableRecord
  2
*Paper_Space
340
1E
  0
ENDTAB
  0
ENDSEC
  0
SECTION
  2
BLOCKS
  0
BLOCK
  5
20
330
1F
100
AcDbEntity
  8
0
100
AcDbBlockBegin
  2
*Model_Space
 70
     0
 10
0.0
 20
0.0
 30
0.0
  3
*Model_Space
  1

  0
ENDBLK
  5
21
330
1F
100
AcDbEntity
  8
0
100
AcDbBlockEnd
  0
BLOCK
  5
1C
330
1B
100
AcDbEntity
 67
     1
  8
0
100
AcDbBlockBegin
  2
*Paper_Space
 70
     0
 10
0.0
 20
0.0
 30
0.0
  3
*Paper_Space
  1

  0
ENDBLK
  5
1D
330
1B
100
AcDbEntity
 67
     1
  8
0
100
AcDbBlockEnd
  0
ENDSEC
  0
SECTION
  2
ENTITIES
  0
LWPOLYLINE
  5
20000
100
AcDbEntity
  8
0
100
AcDbPolyline
 70
0
 90
7
 38
7400
 10
-105.796124031526
 20
35.5785203
 10
-105.796124031526
 20
35.5783790615385
 10
-105.796156704688
 20
35.5782983538462
 10
-105.796434426562
 20
35.57815308
 10
-105.796712148438
 20
35.5783225661538
 10
-105.796791497545
 20
35.5783790615385
 10
-105.796791497545
 20
35.5785203
  0
LWPOLYLINE
  5
20001
100
AcDbEntity
  8
0
100
AcDbPolyline
 70
0
 90
5
 38
7300
 10
-105.799211645312
 20
35.5775316308634
 10
-105.799159572461
 20
35.5778141076923
 10
-105.799211645312
 20
35.5780965845212
 10
-105.799350506204
 20
35.5778141076923
 10
-105.799211645312
 20
35.5775316308634
  0
LWPOLYLINE
  5
20002
100
AcDbEntity
  8
0
100
AcDbPolyline
 70
0
 90
13
 38
7600
 10
-105.802797879959
 20
35.5785203
 10
-105.802797879959
 20
35.5783790615385
 10
-105.802805198059
 20
35.5780965846154
 10
-105.802822029688
 20
35.5780633520362
 10
-105.803003152649
 20
35.5778141076923
 10
-105.803099751562
 20
35.577727191716
 10
-105.803377473438
 20
35.5776511402367
 10
-105.803655195313
 20
35.5775457546154
 10
-105.803710739688
 20
35.5775316307692
 10
-105.803932917187
 20
35.5774126931174
 10
-105.804123850977
 20
35.5772491538462
 10
-105.804210639063
 20
35.5771079153564
 10
-105.8043495
 20
35.5771079153564
  0
LWPOLYLINE
  5
20003
100
AcDbEntity
  8
0
100
AcDbPolyline
 70
0
 90
24
 38
7500
 10
-105.801928489742
 20
35.5785203
 10
-105.801928489742
 20
35.5783790615385
 10
-105.801963616619
 20
35.5780965846154
 10
-105.801988864063
 20
35.5779553461068
 10
-105.802010227284
 20
35.5778141076923
 10
-105.802102801242
 20
35.5775316307692
 10
-105.80215718035
 20
35.5772491538462
 10
-105.802266585938
 20
35.5770894929766
 10
-105.802405446861
 20
35.5769666769231
 10
-105.802544307812
 20
35.5768725179487
 10
-105.802822029688
 20
35.5767954787879
 10
-105.803047678711
 20
35.5766842
 10
-105.803099751562
 20
35.5766395983806
 10
-105.803333622615
 20
35.5764017230769
 10
-105.803377473438
 20
35.5763365360947
 10
-105.803484289543
 20
35.5761192461538
 10
-105.80350196945
 20
35.5758367692308
 10
-105.80361897072
 20
35.5755542923077
 10
-105.803655195313
 20
35.5755096906883
 10
-105.803932917187
 20
35.575316417004
 10
-105.803984990039
 20
35.5752718153846
 10
-105.804210639045
 20
35.5749893384615
 10
-105.804210639063
 20
35.5749893384333
 10
-105.8043495
 20
35.5749893384333
  0
LWPOLYLINE
  5
20004
100
AcDbEntity
  8
0
100
AcDbPolyline
 70
0
 90
36
 38
7400
 10
-105.800632927849
 20
35.5785203
 10
-105.800632927849
 20
35.5783790615385
 10
-105.800845303401
 20
35.5780965846154
 10
-105.800877976563
 20
35.5780400892308
 10
-105.800963429447
 20
35.5778141076923
 10
-105.801029461222
 20
35.5775316307692
 10
-105.801079085506
 20
35.5772491538462
 10
-105.801155698437
 20
35.577107915367
 10
-105.801232311369
 20
35.5769666769231
 10
-105.801356807381
 20
35.5766842
 10
-105.801433420313
 20
35.5764582184615
 10
-105.801466093474
 20
35.5764017230769
 10
-105.801671467634
 20
35.5761192461538
 10
-105.801711142188
 20
35.5760860135747
 10
-105.801988864063
 20
35.5759780076747
 10
-105.802211041563
 20
35.5758367692308
 10
-105.802266585938
 20
35.5758035366516
 10
-105.802474877344
 20
35.5755542923077
 10
-105.802544307812
 20
35.5754130538179
 10
-105.802590594792
 20
35.5752718153846
 10
-105.802661243339
 20
35.5749893384615
 10
-105.802822029688
 20
35.5747951355769
 10
-105.802891460156
 20
35.5747068615385
 10
-105.803099751562
 20
35.5744576171946
 10
-105.80312752375
 20
35.5744243846154
 10
-105.803295790533
 20
35.5741419076923
 10
-105.803377473438
 20
35.5740006692025
 10
-105.803464261523
 20
35.5738594307692
 10
-105.803548379207
 20
35.5735769538462
 10
-105.803655195313
 20
35.5734357153564
 10
-105.80385356808
 20
35.5732944769231
 10
-105.803932917187
 20
35.5732379815385
 10
-105.804071778108
 20
35.573012
 10
-105.804177965901
 20
35.5727295230769
 10
-105.804210639063
 20
35.5726891692308
 10
-105.8043495
 20
35.5726891692308
  0
LWPOLYLINE
  5
20005
100
AcDbEntity
  8
0
100
AcDbPolyline
 70
0
 90
91
 38
7300
 10
-105.795814893149
 20
35.5711759
 10
-105.795814893149
 20
35.5713171384615
 10
-105.795781780156
 20
35.5715996153846
 10
-105.795772166707
 20
35.5718820923077
 10
-105.795772166707
 20
35.5721645692308
 10
-105.795758234171
 20
35.5724470461538
 10
-105.795764626746
 20
35.5727295230769
 10
-105.795764626746
 20
35.573012
 10
-105.795705406641
 20
35.5732944769231
 10
-105.795653333789
 20
35.5735769538462
 10
-105.795665350601
 20
35.5738594307692
 10
-105.795653333789
 20
35.5741419076923
 10
-105.795601260959
 20
35.5744243846154
 10
-105.795653333789
 20
35.5747068615385
 10
-105.795740121921
 20
35.5749893384615
 10
-105.795878982813
 20
35.5752718152905
 10
-105.796156704688
 20
35.575130576876
 10
-105.796434426562
 20
35.575130576876
 10
-105.796573287454
 20
35.5749893384615
 10
-105.796712148438
 20
35.5749045953846
 10
-105.79690655375
 20
35.5747068615385
 10
-105.796989870313
 20
35.5745656230298
 10
-105.797128731204
 20
35.5744243846154
 10
-105.797267592188
 20
35.5743591976331
 10
-105.797481224399
 20
35.5741419076923
 10
-105.797545314063
 20
35.5740889432692
 10
-105.797770963086
 20
35.5738594307692
 10
-105.797823035937
 20
35.573794243787
 10
-105.797996612109
 20
35.5735769538462
 10
-105.798100757813
 20
35.5733886358974
 10
-105.798152830664
 20
35.5732944769231
 10
-105.798250300361
 20
35.573012
 10
-105.798378479687
 20
35.5728816260355
 10
-105.798656201563
 20
35.5727741246964
 10
-105.798827107332
 20
35.573012
 10
-105.798933923438
 20
35.5732944768948
 10
-105.79893392345
 20
35.5732944769231
 10
-105.799211645312
 20
35.573544360355
 10
-105.799247869905
 20
35.5735769538462
 10
-105.799332393954
 20
35.5738594307692
 10
-105.799284094497
 20
35.5741419076923
 10
-105.799332393954
 20
35.5744243846154
 10
-105.799368618546
 20
35.5747068615385
 10
-105.799211645325
 20
35.5749893384615
 10
-105.799211645312
 20
35.5749893384782
 10
-105.799068576468
 20
35.5752718153846
 10
-105.799057355382
 20
35.5755542923077
 10
-105.798965968269
 20
35.5758367692308
 10
-105.798998013101
 20
35.5761192461538
 10
-105.799038069141
 20
35.5764017230769
 10
-105.799072784389
 20
35.5766842
 10
-105.799127121264
 20
35.5769666769231
 10
-105.799211645312
 20
35.5771644107692
 10
-105.799489367188
 20
35.5771079153375
 10
-105.799581941146
 20
35.5769666769231
 10
-105.799767089062
 20
35.5767783589744
 10
-105.799819161914
 20
35.5766842
 10
-105.799992738086
 20
35.5764017230769
 10
-105.800044810925
 20
35.5761192461538
 10
-105.800044810924
 20
35.5758367692308
 10
-105.800044810938
 20
35.5758367691366
 10
-105.800108900601
 20
35.5755542923077
 10
-105.800270459961
 20
35.5752718153846
 10
-105.800322532813
 20
35.575130576876
 10
-105.800600254688
 20
35.575130576876
 10
-105.800877976563
 20
35.5752718153443
 10
-105.801155698437
 20
35.5750545254438
 10
-105.80119954926
 20
35.5749893384615
 10
-105.801369330649
 20
35.5747068615385
 10
-105.801433420313
 20
35.5746221184615
 10
-105.80150542228
 20
35.5744243846154
 10
-105.801623440543
 20
35.5741419076923
 10
-105.801711142171
 20
35.5738594307692
 10
-105.801711142188
 20
35.573859430741
 10
-105.801831890829
 20
35.5735769538462
 10
-105.801988864063
 20
35.5733474413462
 10
-105.802032714885
 20
35.5732944769231
 10
-105.801988864063
 20
35.5732003179487
 10
-105.801916414878
 20
35.573012
 10
-105.801831890829
 20
35.5727295230769
 10
-105.801825498254
 20
35.5724470461538
 10
-105.8019055475
 20
35.5721645692308
 10
-105.801988864063
 20
35.5720798261538
 10
-105.802266585938
 20
35.5720798261538
 10
-105.802544307812
 20
35.5721116048077
 10
-105.802822029688
 20
35.5720341952663
 10
-105.803016435
 20
35.5718820923077
 10
-105.803099751535
 20
35.5715996153846
 10
-105.803099751562
 20
35.5715996152905
 10
-105.803163841226
 20
35.5713171384615
 10
-105.803163841226
 20
35.5711759
  0
ENDSEC
  0
SECTION
  2
OBJECTS
  0
DICTIONARY
  5
C
330
0
100
AcDbDictionary
281
     1
  3
ACAD_GROUP
350
D
  3
ACAD_LAYOUT
350
1A
  3
ACAD_MLEADERSTYLE
350
43
  3
ACAD_PLOTSETTINGS
350
19
  3
ACAD_PLOTSTYLENAME
350
E
  3
ACAD_TABLESTYLE
350
42
  0
DICTIONARY
  5
D
102
{ACAD_REACTORS
330
C
102
}
330
C
100
AcDbDictionary
281
     1
  0
DICTIONARY
  5
1A
102
{ACAD_REACTORS
330
C
102
}
330
C
100
AcDbDictionary
281
     1
  3
Layout1
350
1E
  3
Model
350
22
  0
DICTIONARY
  5
43
102
{ACAD_REACTORS
330
C
102
}
330
C
100
AcDbDictionary
281
     1
  0
DICTIONARY
  5
19
102
{ACAD_REACTORS
330
C
102
}
330
C
100
AcDbDictionary
281
     1
  0
ACDBDICTIONARYWDFLT
  5
E
102
{ACAD_REACTORS
330
C
102
}
330
C
100
AcDbDictionary
281
     1
  3
Normal
350
F
100
AcDbDictionaryWithDefault
340
F
  0
DICTIONARY
  5
42
102
{ACAD_REACTORS
330
C
102
}
330
C
100
AcDbDictionary
281
     1
  0
LAYOUT
  5
1E
102
{ACAD_REACTORS
330
1A
102
}
330
1A
100
AcDbPlotSettings
  1

  2
none_device
  4

  6

 40
0.0
 41
0.0
 42
0.0
 43
0.0
 44
0.0
 45
0.0
 46
0.0
 47
0.0
 48
0.0
 49
0.0
140
0.0
141
0.0
142
1.0
143
1.0
 70
   688
 72
     0
 73
     0
 74
     5
  7

 75
    16
 76
     0
 77
     2
 78
   300
147
1.0
148
0.0
149
0.0
100
AcDbLayout
  1
Layout1
 70
     1
 71
     1
 10
0.0
 20
0.0
 11
12.0
 21
9.0
 12
0.0
 22
0.0
 32
0.0
 14
1.000000000000000E+20
 24
1.000000000000000E+20
 34
1.000000000000000E+20
 15
-1.000000000000000E+20
 25
-1.000000000000000E+20
 35
-1.000000000000000E+20
146
0.0
 13
0.0
 23
0.0
 33
0.0
 16
1.0
 26
0.0
 36
0.0
 17
0.0
 27
1.0
 37
0.0
 76
     0
330
1B
  0
LAYOUT
  5
22
102
{ACAD_REACTORS
330
1A
102
}
330
1A
100
AcDbPlotSettings
  1

  2
none_device
  4

  6

 40
0.0
 41
0.0
 42
0.0
 43
0.0
 44
0.0
 45
0.0
 46
0.0
 47
0.0
 48
0.0
 49
0.0
140
0.0
141
0.0
142
1.0
143
1.0
 70
  1712
 72
     0
 73
     0
 74
     0
  7

 75
     0
 76
     0
 77
     2
 78
   300
147
1.0
148
0.0
149
0.0
100
AcDbLayout
  1
Model
 70
     1
 71
     0
 10
0.0
 20
0.0
 11
12.0
 21
9.0
 12
0.0
 22
0.0
 32
0.0
 14
30.0
 24
49.75
 34
0.0
 15
130.5
 25
163.1318914119703
 35
0.0
146
0.0
 13
0.0
 23
0.0
 33
0.0
 16
1.0
 26
0.0
 36
0.0
 17
0.0
 27
1.0
 37
0.0
 76
     0
330
1F
331
29
  0
ACDBPLACEHOLDER
  5
F
102
{ACAD_REACTORS
330
E
102
}
330
E
  0
ENDSEC
  0
EOF
